<?xml version="1.0" standalone="no"?>
<!DOCTYPE svg PUBLIC "-//W3C//DTD SVG 20010904//EN"
 "http://www.w3.org/TR/2001/REC-SVG-20010904/DTD/svg10.dtd">
<svg version="1.0" xmlns="http://www.w3.org/2000/svg"
 width="1332.000000pt" height="1332.000000pt" viewBox="0 0 1332.000000 1332.000000"
 preserveAspectRatio="xMidYMid meet">
<metadata>
Created by potrace 1.11, written by Peter Selinger 2001-2013
</metadata>
<g transform="translate(0.000000,1332.000000) scale(0.100000,-0.100000)"
fill="#000000" stroke="none">
<path d="M0 9373 c0 -145 4 -223 10 -213 7 12 11 10 18 -9 4 -13 7 -38 5 -57
-1 -20 2 -32 7 -29 17 11 32 -5 20 -20 -8 -10 -6 -17 9 -27 12 -8 18 -18 14
-21 -3 -4 -1 -7 6 -7 7 0 10 -4 7 -9 -4 -5 4 -7 16 -5 13 2 17 2 11 -2 -10 -4
-9 -9 2 -20 8 -9 19 -13 24 -9 6 3 8 -4 6 -15 -2 -11 0 -18 6 -15 5 4 9 1 9
-5 0 -6 4 -9 9 -6 5 3 12 -4 16 -17 4 -14 8 -17 12 -9 4 10 8 10 21 0 13 -11
14 -11 7 1 -5 10 -4 12 3 7 7 -4 12 -14 12 -23 0 -9 2 -14 6 -11 3 3 21 2 40
-2 18 -4 34 -4 34 0 0 5 13 5 30 0 20 -6 30 -5 30 2 0 6 6 6 15 -2 12 -10 15
-10 15 1 0 11 2 11 10 -1 5 -8 10 -10 10 -5 0 10 92 10 117 1 7 -3 13 -1 13 4
0 5 13 5 30 0 20 -6 30 -5 30 2 0 6 6 6 15 -2 12 -10 15 -10 15 1 0 11 2 11
10 -1 6 -9 10 -11 10 -3 0 7 6 10 13 7 20 -7 117 -10 117 -2 0 4 13 3 30 -2
20 -6 30 -5 30 2 0 6 6 6 15 -2 12 -10 15 -10 15 1 0 11 2 11 10 -1 6 -9 10
-11 10 -3 0 7 6 10 13 7 20 -7 117 -10 117 -2 0 4 14 3 30 -2 21 -6 30 -5 30
3 0 7 4 6 10 -3 5 -8 10 -10 10 -4 0 12 41 11 59 -1 6 -3 11 0 11 7 0 9 3 9
10 -2 7 -11 10 -11 10 -2 0 10 5 10 20 2 15 -8 20 -8 20 2 0 10 2 10 8 1 4 -7
13 -9 21 -4 7 5 28 5 47 1 19 -4 34 -4 34 0 0 5 14 5 30 0 20 -6 30 -5 30 2 0
6 6 6 15 -2 12 -10 15 -10 15 1 0 11 2 11 10 -1 5 -8 10 -10 10 -5 0 10 92 10
117 1 7 -3 13 -1 13 4 0 5 13 5 30 0 20 -6 30 -5 30 2 0 6 6 6 15 -2 12 -10
15 -10 15 1 0 11 2 11 10 -1 5 -8 10 -10 10 -5 0 10 92 10 117 1 7 -3 13 -1
13 4 0 5 13 5 30 0 20 -6 30 -5 30 2 0 6 6 6 15 -2 12 -10 15 -10 15 1 0 11 2
11 10 -1 6 -9 10 -11 10 -3 0 7 6 10 13 7 20 -7 117 -10 117 -2 0 4 14 3 30
-2 20 -6 30 -5 30 2 0 6 6 6 15 -2 12 -10 15 -10 15 1 0 11 2 11 10 -1 6 -9
10 -11 10 -3 0 7 6 10 13 7 20 -7 117 -10 117 -2 0 4 13 3 30 -2 21 -6 30 -5
30 3 0 7 4 6 10 -3 5 -8 10 -10 10 -4 0 12 41 11 59 -1 6 -3 11 0 11 7 0 9 3
9 10 -2 7 -11 10 -11 10 -2 0 10 5 10 20 2 15 -8 20 -8 20 2 0 10 2 10 8 1 4
-7 13 -9 21 -4 7 5 28 5 47 1 19 -4 34 -4 34 0 0 5 14 5 30 0 20 -6 30 -5 30
2 0 6 6 6 15 -2 12 -10 15 -10 15 1 0 11 2 11 10 -1 5 -8 10 -10 10 -5 0 10
92 10 117 1 7 -3 13 -1 13 4 0 5 13 5 30 0 20 -6 30 -5 30 2 0 6 6 6 15 -2 12
-10 15 -10 15 1 0 11 2 11 10 -1 5 -8 10 -10 10 -5 0 10 92 10 117 1 7 -3 13
-1 13 4 0 5 13 5 30 0 20 -6 30 -5 30 2 0 6 6 6 15 -2 12 -10 15 -10 15 1 0
11 2 11 10 -1 6 -9 10 -11 10 -3 0 7 6 10 13 7 20 -7 117 -10 117 -2 0 4 13 3
30 -2 20 -6 30 -5 30 2 0 6 6 6 15 -2 12 -10 15 -10 15 1 0 11 2 11 10 -1 6
-9 10 -11 10 -3 0 7 6 10 13 7 20 -7 117 -10 117 -2 0 4 13 3 30 -2 21 -6 30
-5 30 3 0 7 4 6 10 -3 5 -8 10 -10 10 -4 0 12 41 11 59 -1 6 -3 11 0 11 7 0 9
3 9 10 -2 7 -11 10 -11 10 -2 0 10 5 10 20 2 15 -8 20 -8 20 2 0 10 2 10 8 1
4 -7 13 -9 21 -4 7 5 28 5 47 1 19 -4 34 -4 34 0 0 5 13 5 30 0 20 -6 30 -5
30 2 0 6 6 6 15 -2 12 -10 15 -10 15 1 0 11 2 11 10 -1 5 -8 10 -10 10 -5 0
10 92 10 117 1 7 -3 13 -1 13 4 0 5 13 5 30 0 20 -6 30 -5 30 2 0 6 6 6 15 -2
12 -10 15 -10 15 1 0 11 2 11 10 -1 5 -8 10 -10 10 -5 0 10 92 10 117 1 7 -3
13 -1 13 4 0 5 13 5 30 0 20 -6 30 -5 30 2 0 6 6 6 15 -2 12 -10 15 -10 15 1
0 11 2 11 10 -1 6 -9 10 -11 10 -3 0 7 6 10 13 7 20 -7 117 -10 117 -2 0 4 14
3 30 -2 20 -6 30 -5 30 2 0 6 6 6 15 -2 12 -10 15 -10 15 1 0 11 2 11 10 -1 6
-9 10 -11 10 -3 0 7 6 10 13 7 20 -7 117 -10 117 -2 0 4 13 3 30 -2 21 -6 30
-5 30 3 0 7 4 6 10 -3 5 -8 10 -10 10 -4 0 12 41 11 59 -1 6 -3 11 0 11 7 0 9
3 9 10 -2 7 -11 10 -11 10 -2 0 10 5 10 20 2 15 -8 20 -8 20 2 0 8 3 9 8 3 8
-11 742 -14 742 -3 0 4 13 3 29 -2 21 -6 31 -5 35 3 3 8 5 8 5 -1 1 -7 6 -10
13 -6 7 5 9 2 5 -9 -6 -17 19 -32 28 -17 8 13 46 -12 41 -26 -3 -7 7 -10 25
-8 18 2 28 0 24 -6 -3 -6 -1 -10 5 -10 6 0 8 -4 5 -10 -3 -6 1 -7 9 -4 11 4
16 0 16 -11 0 -10 5 -13 12 -9 8 5 9 2 5 -10 -4 -9 -3 -14 2 -11 16 10 23 -15
9 -32 -9 -12 -9 -15 0 -9 7 4 12 2 12 -4 0 -6 5 -8 12 -4 8 5 9 0 6 -14 -4
-12 -2 -20 2 -17 12 8 41 -6 34 -16 -3 -5 1 -9 8 -9 10 0 10 -2 -1 -9 -10 -6
-10 -10 -1 -16 9 -6 9 -9 0 -15 -7 -4 -9 -13 -6 -19 4 -6 12 -9 17 -6 5 4 9
-3 9 -14 0 -12 5 -21 11 -21 8 0 8 -5 -1 -15 -9 -11 -9 -15 -1 -15 7 0 9 -5 4
-12 -11 -19 -12 -38 -2 -38 5 0 9 -5 9 -11 0 -5 -5 -7 -11 -3 -7 4 -7 -1 1
-16 9 -17 9 -21 0 -15 -9 5 -10 1 -5 -14 5 -15 2 -21 -9 -21 -9 0 -17 -7 -17
-15 -1 -8 -2 -21 -3 -27 -1 -7 3 -16 9 -20 6 -5 5 -8 -3 -8 -7 0 -10 -4 -7
-10 3 -5 1 -10 -5 -10 -6 0 -8 -5 -4 -12 5 -8 0 -7 -11 2 -10 8 -16 10 -12 4
8 -14 -16 -37 -29 -26 -4 4 -2 -2 6 -13 8 -11 11 -17 7 -14 -5 4 -19 -4 -33
-18 -13 -13 -28 -22 -33 -19 -5 3 -8 -2 -7 -11 0 -10 -6 -18 -14 -18 -8 0 -14
-9 -14 -18 1 -10 0 -16 -3 -13 -3 3 -14 1 -24 -5 -13 -7 -19 -6 -19 1 0 6 -10
2 -22 -10 -12 -11 -26 -20 -32 -20 -5 0 -6 -3 -3 -6 4 -4 12 -3 20 2 7 5 5 2
-5 -7 -9 -9 -15 -18 -13 -20 2 -2 -8 -5 -21 -5 -15 -1 -21 2 -17 10 4 6 0 5
-9 -2 -12 -10 -18 -10 -23 -1 -6 8 -10 8 -15 -2 -6 -9 -12 -10 -22 -1 -9 7
-19 8 -28 2 -18 -12 -33 -13 -26 -2 2 4 -4 8 -14 8 -10 0 -16 -4 -13 -9 7 -12
-30 -4 -39 8 -5 6 -8 5 -8 -3 0 -10 -5 -10 -21 -1 -16 8 -20 8 -14 -1 9 -14
-27 -10 -37 5 -5 6 -8 6 -8 -2 0 -11 -30 -10 -49 2 -5 3 -13 0 -17 -6 -4 -8
-9 -7 -15 2 -5 8 -9 9 -9 4 0 -6 -9 -11 -20 -12 -13 -1 -18 2 -13 10 5 9 3 9
-8 0 -12 -10 -18 -10 -27 -1 -9 9 -12 9 -12 0 0 -14 -21 -12 -32 3 -5 7 -8 6
-8 0 0 -6 -9 -11 -20 -12 -13 -1 -18 2 -13 10 4 8 1 8 -9 -1 -12 -10 -18 -10
-23 -1 -6 8 -9 8 -15 -1 -5 -8 -13 -9 -21 -4 -19 11 -49 13 -43 2 8 -13 -29
-6 -38 7 -5 6 -8 5 -8 -3 0 -10 -5 -10 -21 -1 -16 8 -20 8 -14 -1 9 -14 -27
-10 -37 5 -5 6 -8 6 -8 -2 0 -11 -30 -10 -49 2 -5 3 -13 1 -16 -5 -5 -8 -11
-8 -20 0 -9 8 -15 8 -20 0 -3 -5 -11 -10 -16 -10 -6 0 -7 6 -3 13 6 9 5 9 -7
0 -12 -10 -18 -10 -27 -1 -9 9 -12 9 -12 0 0 -14 -21 -12 -32 3 -5 7 -8 6 -8
0 0 -6 -9 -11 -20 -12 -13 -1 -18 2 -13 10 4 8 1 8 -9 -1 -12 -10 -18 -10 -23
-1 -6 8 -10 8 -15 -2 -7 -10 -12 -10 -23 0 -10 8 -17 9 -22 1 -4 -7 -12 -7
-25 0 -13 7 -21 7 -25 0 -5 -8 -11 -8 -20 0 -9 8 -15 8 -20 0 -3 -5 -11 -10
-16 -10 -6 0 -7 6 -3 13 6 9 5 9 -7 0 -12 -10 -18 -10 -27 -1 -9 9 -12 9 -12
0 0 -14 -21 -12 -32 3 -5 7 -8 6 -8 0 0 -6 -9 -11 -20 -12 -13 -1 -18 2 -13
10 4 8 1 8 -9 -1 -12 -10 -18 -10 -23 -1 -6 8 -10 8 -15 -2 -7 -10 -12 -10
-23 0 -10 8 -17 9 -22 1 -4 -7 -12 -7 -25 0 -13 7 -21 7 -25 0 -5 -8 -11 -8
-20 0 -9 8 -15 8 -20 0 -3 -5 -11 -10 -16 -10 -6 0 -7 6 -3 13 6 9 5 9 -7 0
-12 -10 -18 -10 -27 -1 -9 9 -12 9 -12 0 0 -14 -21 -12 -32 3 -5 7 -8 6 -8 0
0 -6 -9 -11 -20 -12 -13 -1 -18 2 -13 10 4 8 1 8 -9 -1 -12 -10 -18 -10 -23
-1 -6 8 -10 8 -15 -2 -7 -10 -12 -10 -23 0 -10 8 -17 9 -22 1 -4 -7 -12 -7
-25 0 -13 7 -21 7 -25 0 -5 -8 -11 -8 -20 0 -9 8 -15 8 -20 0 -3 -5 -11 -10
-16 -10 -6 0 -7 6 -3 13 6 9 5 9 -7 0 -12 -10 -18 -10 -27 -1 -9 9 -12 9 -12
0 0 -14 -21 -12 -32 3 -5 7 -8 6 -8 0 0 -6 -9 -11 -20 -12 -13 -1 -18 2 -13
10 4 8 1 8 -9 -1 -12 -10 -18 -10 -23 -1 -6 8 -10 8 -15 -2 -7 -10 -12 -10
-23 0 -10 8 -17 9 -22 1 -4 -7 -12 -7 -25 0 -13 7 -21 7 -25 0 -5 -8 -11 -8
-20 0 -9 8 -15 8 -20 0 -3 -5 -11 -10 -16 -10 -6 0 -7 6 -3 13 6 9 5 9 -7 0
-12 -10 -18 -10 -27 -1 -9 9 -12 9 -12 0 0 -14 -21 -12 -32 3 -5 7 -8 6 -8 0
0 -6 -9 -11 -20 -12 -13 -1 -18 2 -13 10 4 8 1 8 -9 -1 -12 -10 -18 -10 -23
-1 -6 8 -10 8 -15 -2 -7 -10 -12 -10 -23 0 -10 8 -17 9 -22 1 -4 -7 -12 -7
-25 0 -13 7 -21 7 -25 0 -5 -8 -11 -8 -20 0 -9 8 -15 8 -20 0 -3 -5 -11 -10
-16 -10 -6 0 -7 6 -3 13 6 9 5 9 -7 0 -12 -10 -18 -10 -27 -1 -9 9 -12 9 -12
0 0 -14 -21 -12 -32 3 -5 7 -8 6 -8 0 0 -6 -9 -11 -20 -12 -13 -1 -18 2 -13
10 4 8 1 8 -9 -1 -12 -10 -18 -10 -23 -1 -6 8 -10 8 -15 -2 -7 -10 -12 -10
-23 0 -10 8 -17 9 -22 1 -4 -7 -12 -7 -25 0 -13 7 -21 7 -25 0 -5 -8 -11 -8
-20 0 -9 8 -15 8 -20 0 -3 -5 -11 -10 -16 -10 -6 0 -7 6 -3 13 6 9 5 9 -7 0
-12 -10 -18 -10 -27 -1 -9 9 -12 9 -12 0 0 -14 -21 -12 -32 3 -5 7 -8 6 -8 0
0 -6 -9 -11 -20 -12 -13 -1 -18 2 -13 10 4 8 1 8 -9 -1 -12 -10 -18 -10 -23
-1 -6 8 -10 8 -15 -2 -7 -10 -12 -10 -23 0 -10 8 -17 9 -22 1 -4 -7 -12 -7
-25 0 -13 7 -21 7 -25 0 -5 -8 -11 -8 -20 0 -9 8 -15 8 -20 0 -3 -5 -11 -10
-16 -10 -6 0 -7 6 -3 13 6 9 5 9 -7 0 -12 -10 -18 -10 -27 -1 -9 9 -12 9 -12
0 0 -14 -21 -12 -32 3 -5 7 -8 6 -8 0 0 -6 -9 -11 -20 -12 -13 -1 -18 2 -13
10 4 8 1 8 -9 -1 -12 -10 -18 -10 -23 -1 -6 8 -10 8 -15 -2 -7 -10 -12 -10
-23 0 -10 8 -17 9 -22 1 -4 -7 -12 -7 -25 0 -13 7 -21 7 -25 0 -5 -8 -11 -8
-20 0 -9 8 -15 8 -20 0 -3 -5 -11 -10 -16 -10 -6 0 -7 6 -3 13 6 9 5 9 -7 0
-12 -10 -18 -10 -27 -1 -9 9 -12 9 -12 0 0 -14 -21 -12 -32 3 -5 7 -8 6 -8 0
0 -6 -9 -11 -20 -12 -13 -1 -18 2 -13 10 4 8 1 8 -9 -1 -12 -10 -18 -10 -23
-1 -6 8 -10 8 -15 -2 -7 -10 -12 -10 -23 0 -10 8 -17 9 -22 1 -4 -7 -12 -7
-25 0 -13 7 -21 7 -25 0 -5 -8 -11 -8 -20 0 -9 8 -15 8 -20 0 -3 -5 -11 -10
-16 -10 -6 0 -7 6 -3 13 6 9 5 9 -7 0 -12 -10 -18 -10 -27 -1 -9 9 -12 9 -12
0 0 -14 -21 -12 -32 3 -5 7 -8 6 -8 0 0 -6 -9 -11 -20 -12 -13 -1 -18 2 -13
10 4 8 1 8 -9 -1 -12 -10 -18 -10 -23 -1 -6 8 -10 8 -15 -2 -7 -10 -12 -10
-23 0 -10 8 -17 9 -22 1 -4 -7 -12 -7 -25 0 -13 7 -21 7 -25 0 -5 -8 -11 -8
-20 0 -9 8 -15 8 -20 0 -3 -5 -11 -10 -16 -10 -6 0 -7 6 -3 13 6 9 5 9 -7 0
-12 -10 -18 -10 -27 -1 -9 9 -12 9 -12 0 0 -14 -21 -12 -32 3 -5 7 -8 6 -8 0
0 -6 -9 -11 -20 -12 -13 -1 -18 2 -13 10 4 8 1 8 -9 -1 -12 -10 -18 -10 -23
-1 -6 8 -10 8 -15 -2 -7 -10 -12 -10 -23 -1 -7 7 -16 9 -19 7 -12 -12 -48 -13
-48 -2 0 8 -3 8 -8 2 -4 -6 -14 -10 -22 -10 -8 0 -19 -5 -25 -12 -13 -17 -53
-25 -61 -11 -4 6 -18 -3 -34 -22 -20 -23 -30 -29 -35 -20 -6 9 -4 11 5 5 9 -5
11 -4 6 3 -5 9 -12 8 -26 0 -11 -7 -18 -14 -16 -16 6 -5 -37 -48 -55 -54 -9
-4 -15 -16 -13 -30 1 -12 3 -23 4 -23 1 0 3 -8 5 -18 2 -9 -1 -15 -6 -11 -5 3
-9 0 -9 -6 0 -6 -4 -8 -10 -5 -6 4 -10 -5 -10 -20 0 -14 -9 -36 -20 -48 -12
-12 -16 -23 -10 -25 5 -2 7 -9 3 -15 -10 -17 -11 -47 -2 -47 5 0 4 -12 -1 -26
-7 -18 -7 -23 1 -18 7 4 7 -1 -1 -16 -10 -19 -9 -22 9 -27 12 -3 22 -14 22
-24 1 -11 3 -23 4 -29 1 -5 3 -14 4 -20 0 -5 6 -10 12 -10 5 0 7 5 3 12 -4 7
-3 8 4 4 9 -5 9 -13 2 -27 -9 -16 -7 -21 12 -29 13 -5 19 -9 15 -9 -5 -1 8
-16 27 -35 20 -18 36 -40 36 -47 0 -11 2 -11 10 1 8 13 10 12 10 -3 0 -15 3
-16 23 -6 12 6 19 8 15 4 -11 -12 11 -35 27 -29 7 3 16 0 20 -6 6 -9 10 -9 17
1 7 10 8 8 5 -9 -3 -12 -1 -20 4 -16 5 3 9 1 9 -3 0 -13 40 -11 40 2 0 5 7 1
15 -9 15 -20 15 -20 15 0 0 10 4 15 8 9 9 -13 82 -14 82 0 0 5 7 1 15 -9 9
-12 15 -15 15 -7 0 10 10 12 35 8 26 -4 34 -3 28 6 -5 9 -3 9 8 0 9 -7 20 -8
29 -3 8 5 18 6 24 3 17 -11 86 -9 86 2 0 5 7 1 15 -9 9 -12 15 -15 15 -7 0 10
10 12 35 8 26 -4 34 -3 28 6 -5 9 -3 9 8 0 9 -7 20 -8 29 -3 8 5 18 6 24 3 15
-10 86 -9 86 0 0 4 6 5 13 0 17 -10 49 -15 44 -6 -3 5 5 8 18 8 13 0 22 -2 20
-5 -2 -3 19 -6 46 -5 27 0 49 4 49 8 0 5 6 5 13 0 16 -10 147 -11 147 0 0 4 6
5 13 0 16 -10 147 -11 147 0 0 4 6 5 13 0 16 -10 147 -11 147 0 0 4 5 5 12 1
18 -12 118 -10 118 1 0 6 7 1 15 -9 9 -12 15 -15 15 -7 0 10 10 12 35 8 26 -4
34 -3 28 6 -5 9 -3 9 8 0 9 -7 20 -8 29 -3 8 5 18 6 24 3 17 -11 86 -9 86 2 0
5 7 1 15 -9 9 -12 15 -15 15 -7 0 10 10 12 35 8 26 -4 34 -3 28 6 -5 9 -3 9 8
0 9 -7 20 -8 29 -3 8 5 18 6 24 3 15 -10 86 -9 86 0 0 4 6 5 13 0 17 -10 49
-15 44 -6 -3 5 5 8 18 8 13 0 22 -2 20 -5 -2 -3 19 -6 46 -5 27 0 49 4 49 8 0
5 6 5 12 0 17 -10 148 -11 148 0 0 4 6 5 13 0 16 -10 147 -11 147 0 0 4 6 5
13 0 16 -10 147 -11 147 0 0 4 5 5 12 1 18 -12 118 -10 118 1 0 6 7 1 15 -9 9
-12 15 -15 15 -7 0 10 10 12 35 8 26 -4 34 -3 28 6 -5 9 -3 9 8 0 9 -7 20 -8
29 -3 8 5 18 6 24 3 17 -11 86 -9 86 2 0 5 7 1 15 -9 9 -12 15 -15 15 -7 0 10
10 12 35 8 26 -4 34 -3 28 6 -5 9 -3 9 8 0 9 -7 20 -8 29 -3 8 5 18 6 24 3 15
-10 86 -9 86 0 0 4 6 5 13 0 17 -10 49 -15 44 -6 -3 5 5 8 18 8 13 0 22 -2 20
-5 -2 -3 19 -6 46 -5 27 0 49 4 49 8 0 5 6 5 13 0 16 -10 147 -11 147 0 0 4 5
5 12 1 21 -13 59 -14 51 -1 -5 9 -3 9 8 0 9 -7 20 -8 29 -3 8 5 18 6 24 3 17
-11 86 -9 86 2 0 5 7 1 15 -9 15 -20 15 -20 15 0 0 10 4 15 8 9 9 -13 62 -17
62 -4 0 6 5 7 12 3 20 -13 68 -13 61 0 -5 7 -2 7 8 -1 9 -7 20 -8 29 -3 8 5
18 6 24 3 17 -11 86 -9 86 2 0 5 7 1 15 -9 9 -12 15 -15 15 -7 0 10 10 12 35
8 26 -4 34 -3 28 6 -5 9 -3 9 8 0 9 -7 20 -8 29 -3 8 5 19 6 25 2 14 -10 115
-9 115 1 0 5 6 5 13 0 16 -10 147 -11 147 0 0 4 5 5 12 1 18 -12 118 -10 118
1 0 6 7 1 15 -9 9 -12 15 -15 15 -7 0 10 10 12 35 8 26 -4 34 -3 28 6 -5 9 -3
9 8 0 9 -7 20 -8 29 -3 8 5 18 6 24 3 17 -11 86 -9 86 2 0 5 7 1 15 -9 9 -12
15 -15 15 -7 0 10 10 12 35 8 26 -4 34 -3 28 6 -5 9 -3 9 8 0 9 -7 20 -8 29
-3 8 5 18 6 24 3 15 -10 86 -9 86 0 0 4 6 5 13 0 17 -10 49 -15 44 -6 -3 5 5
8 18 8 13 0 22 -2 20 -5 -2 -3 19 -6 46 -5 27 0 49 4 49 8 0 5 6 5 13 0 16
-10 147 -11 147 0 0 4 6 5 13 0 15 -10 35 -10 68 -2 18 5 32 2 44 -10 11 -10
15 -11 10 -2 -5 9 -4 12 3 7 7 -4 12 -14 12 -23 0 -9 6 -13 15 -9 20 7 45 -3
45 -19 0 -9 8 -12 22 -10 24 5 51 -12 42 -26 -3 -5 -1 -9 5 -9 6 0 26 -15 45
-34 19 -19 37 -32 41 -28 4 4 5 0 3 -8 -2 -8 3 -14 10 -12 8 1 11 -2 7 -8 -3
-5 -1 -10 5 -10 7 0 9 -15 6 -40 -4 -33 -2 -40 13 -40 15 0 17 -9 17 -62 -1
-35 -5 -69 -10 -77 -7 -11 -5 -13 6 -8 13 5 15 1 9 -21 -5 -15 -6 -33 -3 -41
2 -7 -2 -17 -9 -22 -12 -7 -12 -9 0 -9 9 0 7 -6 -8 -19 -13 -11 -19 -25 -15
-35 4 -11 -2 -19 -20 -26 -14 -5 -26 -12 -26 -15 0 -4 4 -4 9 -1 5 3 8 -5 7
-19 0 -16 -6 -23 -13 -20 -7 2 -12 1 -10 -3 3 -10 -40 -51 -47 -45 -3 4 -6 -1
-6 -10 0 -13 -5 -15 -25 -7 -19 7 -23 6 -19 -5 4 -9 -4 -19 -20 -26 -14 -7
-23 -16 -20 -20 3 -5 -7 -9 -21 -9 -18 0 -24 -4 -19 -12 5 -9 2 -9 -9 1 -9 7
-17 10 -17 6 0 -4 -6 -2 -14 4 -9 7 -17 8 -20 2 -7 -10 -24 -10 -43 2 -6 4
-15 3 -18 -3 -5 -8 -12 -7 -23 2 -12 10 -14 10 -8 1 4 -8 1 -13 -9 -13 -10 0
-13 5 -9 12 5 7 3 8 -7 2 -19 -12 -179 -12 -179 1 0 6 -4 4 -9 -4 -8 -13 -12
-13 -27 0 -11 9 -15 9 -10 1 8 -13 -19 -13 -41 1 -6 4 -14 3 -17 -1 -3 -5 -22
-8 -43 -6 -21 1 -44 -3 -52 -9 -12 -10 -13 -9 -6 2 6 11 3 13 -13 9 -12 -4
-25 -2 -28 3 -3 6 -11 6 -17 1 -7 -5 -28 -8 -47 -6 -19 1 -41 -3 -49 -10 -12
-9 -13 -8 -6 3 6 11 3 13 -13 9 -12 -4 -25 -2 -28 3 -3 6 -11 6 -17 1 -7 -5
-28 -8 -47 -6 -19 1 -41 -3 -49 -10 -12 -9 -13 -8 -6 3 6 11 3 13 -13 9 -12
-4 -25 -2 -28 3 -3 6 -11 6 -17 1 -7 -5 -28 -8 -47 -6 -19 1 -41 -3 -49 -10
-11 -8 -13 -8 -8 1 5 8 -9 11 -53 9 -37 -1 -60 2 -60 8 0 6 -4 5 -9 -3 -8 -13
-12 -13 -27 0 -10 8 -15 9 -12 3 8 -12 -100 -13 -119 -1 -6 4 -14 3 -17 -2 -7
-10 -25 -9 -43 2 -6 4 -15 3 -18 -3 -5 -8 -12 -7 -23 2 -12 10 -14 10 -8 1 4
-8 1 -13 -9 -13 -10 0 -13 5 -9 12 5 7 3 8 -7 2 -19 -12 -179 -12 -179 1 0 6
-4 4 -9 -4 -8 -13 -12 -13 -27 0 -11 9 -15 9 -10 1 8 -13 -19 -13 -41 1 -6 4
-14 3 -17 -1 -3 -5 -22 -8 -43 -6 -21 1 -44 -3 -52 -9 -12 -10 -13 -9 -6 2 6
11 3 13 -13 9 -12 -4 -25 -2 -28 3 -3 6 -11 6 -17 1 -7 -5 -28 -8 -47 -6 -19
1 -41 -3 -49 -10 -11 -8 -13 -8 -8 1 6 9 -7 12 -53 9 -33 -1 -63 1 -66 6 -3 5
-11 5 -17 0 -7 -5 -28 -8 -47 -6 -19 1 -41 -3 -49 -10 -11 -8 -13 -8 -8 0 5 9
-20 11 -94 10 -55 -1 -103 2 -106 7 -2 4 -10 4 -16 -1 -7 -5 -28 -8 -47 -6
-19 1 -41 -3 -49 -10 -11 -8 -13 -8 -8 1 6 9 -7 12 -53 9 -33 -1 -63 1 -66 6
-3 5 -11 5 -17 0 -7 -5 -28 -8 -47 -6 -19 1 -41 -3 -49 -10 -12 -9 -13 -8 -6
3 6 11 3 13 -13 9 -12 -4 -25 -2 -28 3 -3 6 -11 6 -17 1 -7 -5 -28 -8 -47 -6
-19 1 -41 -3 -49 -10 -11 -8 -13 -8 -8 1 5 8 -9 11 -53 9 -37 -1 -60 2 -60 8
0 6 -4 5 -9 -3 -8 -13 -12 -13 -27 0 -10 8 -15 9 -12 3 8 -12 -100 -13 -119
-1 -6 4 -14 3 -17 -2 -7 -10 -25 -9 -43 2 -6 4 -15 3 -18 -3 -5 -8 -12 -7 -23
2 -12 10 -14 10 -8 1 4 -8 1 -13 -9 -13 -10 0 -13 5 -9 12 5 7 3 8 -7 2 -19
-12 -179 -12 -179 1 0 6 -4 4 -9 -4 -8 -13 -12 -13 -27 0 -11 9 -15 9 -10 1 8
-13 -19 -13 -41 1 -6 4 -14 3 -17 -1 -3 -5 -22 -8 -43 -6 -21 1 -44 -3 -52 -9
-12 -10 -13 -9 -6 2 6 11 3 13 -13 9 -12 -4 -25 -2 -28 3 -3 6 -11 6 -17 1 -7
-5 -28 -8 -47 -6 -19 1 -41 -3 -49 -10 -11 -8 -13 -8 -8 1 6 9 -7 12 -53 9
-33 -1 -63 1 -66 6 -3 4 -11 5 -17 1 -18 -11 -36 -12 -43 -2 -3 5 -11 6 -17 2
-18 -11 -36 -12 -43 -2 -3 5 -11 6 -17 2 -7 -4 -25 -6 -41 -4 -21 2 -26 0 -20
-11 6 -10 5 -11 -7 -2 -8 6 -34 10 -59 9 -61 -3 -60 -3 -60 -22 0 -15 -2 -16
-10 -3 -5 8 -10 10 -10 4 0 -6 -10 -11 -22 -11 -47 -1 -58 -3 -58 -14 0 -5 6
-7 13 -3 9 6 8 3 -1 -8 -14 -18 -42 -14 -42 6 -1 6 -8 -1 -16 -16 -14 -26 -25
-33 -48 -29 -5 1 -3 -6 5 -15 9 -12 9 -15 2 -10 -8 4 -13 2 -13 -4 0 -6 -4 -8
-10 -5 -5 3 -10 -1 -10 -10 0 -9 -4 -13 -10 -10 -5 3 -12 -5 -16 -19 -4 -16
-12 -23 -23 -21 -11 2 -17 -3 -17 -15 0 -10 4 -16 8 -14 4 3 8 1 8 -5 0 -5
-10 -13 -21 -16 -17 -6 -19 -9 -8 -16 12 -7 11 -9 -2 -9 -12 0 -15 -10 -12
-47 2 -31 0 -43 -6 -34 -7 11 -10 11 -16 0 -10 -16 -14 -79 -4 -73 9 5 33 -52
26 -63 -9 -15 12 -53 30 -53 15 0 16 -2 3 -10 -13 -9 -13 -10 0 -10 13 0 13
-1 0 -10 -13 -9 -13 -10 0 -10 13 0 13 -1 0 -10 -10 -6 -11 -10 -2 -10 6 0 12
-6 12 -14 0 -8 13 -24 30 -37 16 -13 30 -30 30 -37 0 -7 5 -10 10 -7 6 3 10 0
10 -8 0 -19 27 -30 34 -14 3 9 5 9 5 0 1 -7 8 -10 18 -6 10 4 14 2 10 -4 -10
-16 22 -46 37 -35 17 13 51 9 49 -5 -3 -13 11 -16 77 -16 19 0 38 -5 42 -11 6
-8 8 -8 8 0 0 6 11 12 25 12 14 0 25 -6 25 -12 0 -7 3 -6 9 2 9 14 32 13 43
-3 5 -7 8 -6 8 0 0 15 50 17 50 2 0 -8 4 -7 10 3 9 13 11 13 20 0 5 -8 10 -10
10 -4 0 14 62 14 72 -1 5 -6 8 -5 8 3 0 7 5 10 10 7 6 -3 10 -1 10 6 0 7 7 4
16 -7 8 -10 13 -14 10 -7 -4 7 1 11 14 10 11 -1 20 -6 20 -12 0 -6 3 -6 8 1 9
14 95 14 104 0 5 -8 8 -7 8 0 0 6 11 12 25 12 14 0 25 -6 25 -12 0 -6 4 -5 9
3 7 12 13 12 24 3 7 -7 17 -9 21 -5 4 4 17 8 30 9 23 1 28 -18 12 -44 -4 -7
-2 -12 6 -12 9 0 9 -3 -2 -10 -13 -9 -13 -10 0 -10 13 0 13 -1 0 -10 -13 -9
-13 -10 0 -10 13 0 13 -1 0 -10 -13 -9 -13 -10 0 -10 13 0 13 -1 0 -10 -13 -9
-13 -10 0 -10 13 0 13 -1 0 -10 -13 -9 -13 -10 0 -10 13 0 13 -1 0 -10 -13 -9
-13 -10 0 -10 13 0 13 -1 0 -10 -13 -9 -13 -10 0 -10 13 0 13 -1 0 -10 -13 -9
-13 -10 0 -10 13 0 13 -1 0 -10 -13 -9 -13 -10 0 -10 13 0 13 -1 0 -10 -13 -9
-13 -10 0 -10 13 0 13 -1 0 -10 -13 -9 -13 -10 0 -10 13 0 13 -1 0 -10 -13 -9
-13 -10 0 -10 13 0 13 -1 0 -10 -13 -9 -13 -10 0 -10 13 0 13 -1 0 -10 -13 -9
-13 -10 0 -10 13 0 13 -1 0 -10 -13 -9 -13 -10 0 -10 13 0 13 -1 0 -10 -13 -9
-13 -10 0 -10 13 0 13 -1 0 -10 -13 -9 -13 -10 0 -10 13 0 13 -1 0 -10 -13 -9
-13 -10 0 -10 12 0 13 -2 1 -9 -11 -7 -11 -9 0 -14 9 -4 10 -8 4 -14 -5 -4
-10 -15 -10 -23 0 -8 5 -18 10 -22 6 -5 4 -12 -5 -18 -13 -9 -13 -11 0 -20 13
-9 13 -10 0 -10 -13 0 -13 -1 0 -10 9 -6 11 -13 5 -17 -5 -5 -10 -15 -10 -23
0 -8 5 -18 10 -22 6 -5 4 -12 -5 -18 -13 -9 -13 -11 0 -20 13 -9 13 -10 0 -10
-13 0 -13 -1 0 -10 11 -8 12 -12 3 -18 -8 -5 -9 -13 -3 -22 5 -9 5 -19 -2 -27
-7 -9 -7 -13 2 -13 10 0 10 -3 0 -15 -8 -9 -9 -15 -2 -15 6 0 9 -9 7 -19 -3
-14 1 -19 13 -16 13 2 17 -5 18 -27 1 -32 39 -76 47 -55 3 7 6 2 6 -10 1 -16
7 -23 21 -23 11 0 19 -6 17 -12 -1 -7 4 -12 12 -10 12 3 12 1 0 -14 -13 -16
-12 -16 6 -8 11 5 29 9 40 9 11 -1 25 3 31 7 7 5 18 3 26 -4 16 -16 42 -22 34
-9 -4 5 -2 12 4 16 5 3 10 2 10 -4 0 -10 18 -10 37 2 6 4 14 3 18 -3 3 -5 11
-10 16 -10 6 0 7 6 3 13 -6 9 -4 9 7 1 16 -12 29 -12 46 -1 6 4 15 3 18 -3 5
-8 11 -8 20 0 9 8 17 7 28 -5 9 -9 18 -11 22 -6 3 6 13 7 22 4 12 -5 14 -3 8
8 -7 12 -6 12 7 1 10 -8 19 -9 22 -3 8 13 47 1 40 -13 -3 -6 2 -2 10 8 9 11
16 15 16 10 0 -14 43 -15 52 -1 5 8 8 8 8 1 0 -13 58 -12 79 0 9 6 12 5 8 -1
-4 -6 4 -10 18 -10 15 0 22 4 18 11 -3 6 0 6 8 -2 17 -16 32 -16 23 1 -6 9 -4
9 7 1 16 -12 29 -12 46 -1 6 4 15 3 18 -3 5 -8 11 -8 20 0 9 8 17 6 29 -5 9
-9 16 -12 16 -6 0 6 7 8 15 5 11 -5 12 -10 5 -18 -6 -9 -6 -17 3 -25 9 -11 9
-14 -1 -18 -6 -3 -12 -9 -12 -14 0 -6 4 -8 9 -5 12 8 8 -27 -4 -36 -6 -5 -5
-8 4 -8 11 0 11 -3 0 -17 -11 -13 -11 -17 -1 -20 6 -3 12 -11 12 -19 0 -8 7
-17 15 -20 10 -4 12 -11 6 -23 -6 -10 -6 -23 0 -33 6 -11 5 -19 -1 -23 -8 -5
-7 -11 1 -21 6 -7 15 -11 20 -9 4 3 7 -5 6 -17 -2 -25 36 -71 49 -60 5 4 2 -1
-6 -11 -12 -16 -12 -20 0 -27 8 -5 17 -7 20 -5 4 2 6 -6 5 -18 -1 -12 7 -34
18 -49 12 -15 18 -31 14 -34 -3 -4 4 -15 16 -26 12 -11 15 -16 7 -12 -13 7
-13 5 -2 -9 8 -9 10 -22 6 -29 -4 -7 -4 -10 0 -6 4 3 16 -2 27 -13 21 -21 25
-34 7 -23 -7 4 -8 3 -4 -4 4 -6 13 -9 21 -5 8 3 15 0 15 -7 0 -6 6 -18 14 -26
11 -11 16 -11 19 -1 3 6 6 2 6 -10 1 -14 7 -23 17 -23 9 0 18 -9 21 -20 3 -11
12 -20 20 -20 8 0 12 -4 8 -9 -3 -5 4 -13 16 -16 17 -6 19 -9 8 -17 -10 -7 -8
-8 9 -5 12 3 20 2 17 -3 -6 -10 29 -50 44 -50 7 0 10 -4 7 -8 -3 -5 1 -9 9 -9
8 0 11 5 8 11 -7 11 20 -8 45 -31 17 -17 35 -17 27 0 -4 6 3 0 15 -15 18 -23
25 -26 41 -18 15 8 19 8 17 -2 -2 -7 3 -12 11 -10 9 2 11 -3 7 -14 -5 -12 -2
-15 10 -10 15 6 59 -16 50 -25 -2 -2 7 -5 20 -5 15 -1 22 2 17 10 -4 7 -2 7 7
-1 7 -7 25 -9 40 -6 17 3 31 0 35 -8 5 -8 4 -10 -3 -5 -7 4 -12 2 -12 -3 0
-14 -14 -13 223 -14 200 -2 244 3 231 25 -5 7 -2 9 8 5 9 -3 21 0 28 6 10 9
11 9 6 -1 -6 -9 -1 -12 18 -10 14 2 29 8 33 13 5 4 1 5 -7 0 -11 -6 -11 -3 2
10 15 16 19 16 34 4 15 -12 16 -12 9 0 -6 11 -2 13 18 9 24 -5 43 12 39 33 0
3 6 6 14 6 7 0 14 -4 14 -9 0 -16 19 -7 25 12 4 11 11 18 16 15 5 -4 9 -1 9 5
0 8 6 7 21 -1 12 -6 19 -7 16 -2 -4 6 9 24 28 41 19 16 35 25 35 19 0 -8 3 -7
9 1 4 8 12 14 17 14 5 0 8 4 6 9 -1 5 6 12 15 16 24 8 53 39 53 55 0 10 2 10
9 0 7 -11 10 -10 15 3 3 9 3 22 -1 28 -4 7 1 6 11 -2 15 -12 17 -12 14 0 -2 8
3 13 12 11 8 -2 12 0 8 4 -5 4 1 14 12 21 11 8 18 19 15 24 -4 5 4 9 17 9 18
0 20 2 8 10 -11 7 -11 10 -2 10 7 0 12 6 11 13 -3 26 1 37 16 37 7 0 18 6 22
13 4 8 17 19 28 26 15 9 16 11 3 7 -28 -8 -21 3 8 14 16 6 22 14 18 22 -11 17
-11 57 -1 71 6 8 7 5 3 -7 -5 -15 -4 -17 8 -7 8 7 13 23 11 36 -1 14 2 22 6
19 5 -3 9 2 9 11 0 9 5 13 10 10 10 -6 15 9 10 30 -8 40 -8 45 2 39 8 -5 9 -1
4 12 -4 10 -4 15 0 12 3 -4 12 -1 19 5 10 9 10 15 1 26 -8 12 -8 13 2 7 6 -4
12 -3 12 3 0 5 -6 12 -12 14 -10 4 -9 6 1 6 11 1 11 4 1 16 -10 12 -10 15 0
15 9 0 9 4 -1 17 -10 11 -10 14 -1 9 6 -4 12 -2 12 3 0 6 -6 11 -12 11 -10 0
-10 2 0 9 17 11 17 21 0 32 -7 5 -8 9 -2 9 6 0 9 13 6 31 -4 25 0 31 17 36 14
4 20 11 16 20 -3 10 -1 13 9 10 7 -3 19 0 26 6 10 9 11 9 6 -1 -8 -14 19 -12
43 2 10 6 12 5 7 -3 -10 -15 25 -11 36 4 5 6 8 6 8 -1 0 -6 11 -11 25 -11 16
0 22 4 18 11 -4 6 1 4 12 -4 22 -18 18 -18 38 -2 11 9 17 10 22 2 5 -8 10 -8
20 0 9 8 17 7 28 -5 9 -9 18 -11 22 -6 3 6 13 7 22 4 12 -5 14 -3 8 8 -7 12
-6 12 7 1 10 -8 19 -9 22 -3 8 13 47 1 40 -13 -3 -6 2 -2 10 8 9 11 16 15 16
10 0 -14 43 -15 52 -1 5 8 8 8 8 1 0 -13 58 -12 79 0 9 6 12 5 8 -1 -4 -6 4
-10 18 -10 15 0 22 4 18 11 -3 6 0 6 8 -1 17 -17 32 -17 23 0 -5 7 0 6 11 -3
22 -18 18 -18 38 -2 11 9 17 10 22 2 5 -8 10 -8 20 0 9 8 17 6 29 -5 11 -11
16 -12 16 -4 0 7 3 9 6 6 4 -3 15 -2 25 4 15 8 19 6 19 -8 0 -10 4 -14 8 -8 4
6 16 10 27 9 11 0 26 5 34 10 12 9 13 7 8 -7 -5 -13 -3 -16 6 -10 6 4 21 8 32
8 11 0 26 5 34 9 11 7 13 5 8 -8 -5 -12 -3 -15 6 -9 6 4 21 8 32 8 11 0 26 4
34 9 11 7 13 5 7 -9 -5 -14 -3 -15 6 -8 7 6 23 9 36 7 17 -3 21 0 16 8 -5 8 0
7 11 -2 19 -15 22 -15 42 1 7 7 14 6 18 -1 5 -8 10 -8 20 0 9 8 17 7 28 -5 9
-9 18 -11 22 -6 3 6 13 7 22 4 12 -5 14 -3 8 8 -7 12 -6 12 7 1 10 -8 19 -9
22 -3 8 13 47 1 40 -13 -3 -6 2 -2 10 8 9 11 16 15 16 10 0 -14 43 -15 52 -1
5 8 8 8 8 1 0 -13 58 -12 79 0 9 6 12 5 8 -1 -4 -6 4 -10 18 -10 15 0 22 4 18
11 -3 6 0 6 8 -1 17 -17 32 -17 23 0 -6 9 -5 9 7 0 23 -18 25 -19 42 -5 11 9
17 10 22 2 5 -8 10 -8 20 0 9 8 17 6 29 -5 9 -9 16 -12 16 -6 0 6 7 7 17 4 12
-5 14 -3 8 8 -7 11 -5 11 10 -1 22 -18 18 -18 38 -2 11 9 17 10 22 2 5 -8 10
-8 20 0 9 8 17 7 28 -5 9 -9 18 -11 22 -6 3 6 13 7 22 4 12 -5 14 -3 8 8 -7
12 -6 12 7 1 10 -8 19 -9 22 -3 8 13 47 1 40 -13 -3 -6 2 -2 10 8 9 11 16 15
16 10 0 -13 47 -16 55 -4 4 6 12 7 18 3 17 -11 57 -11 57 0 0 5 7 1 16 -7 19
-20 25 -20 18 -2 -6 16 24 36 55 36 15 0 19 5 14 18 -3 9 -3 14 1 10 12 -11
58 40 50 55 -6 8 -3 8 9 -1 15 -12 15 -11 7 17 -5 19 -5 29 1 26 5 -4 17 -1
26 4 14 8 15 10 3 11 -13 0 -13 1 0 10 9 6 10 10 3 10 -12 0 -12 45 0 57 4 3
2 12 -4 20 -9 10 -8 13 2 13 9 0 10 3 4 8 -11 8 -16 62 -6 62 4 0 7 9 7 19 0
11 -4 17 -8 15 -12 -7 -10 14 3 38 7 13 7 18 1 14 -6 -4 -10 2 -9 14 1 11 4
20 7 20 3 0 6 9 6 19 0 11 -4 17 -8 15 -12 -7 -10 14 3 38 7 13 7 18 1 14 -6
-4 -10 2 -9 14 1 11 4 20 7 20 3 0 6 9 6 19 0 11 -4 17 -8 15 -12 -7 -10 14 3
38 7 13 7 18 1 14 -6 -4 -10 2 -9 14 1 11 4 20 7 20 3 0 6 9 6 19 0 11 -4 17
-8 15 -12 -7 -10 14 3 38 7 13 7 18 1 14 -6 -4 -10 2 -9 14 1 11 4 20 7 20 3
0 6 9 6 19 0 11 -4 17 -8 15 -11 -7 -10 4 3 28 8 15 8 19 0 14 -14 -9 -14 9 0
36 7 13 7 18 1 14 -6 -4 -10 2 -9 14 1 11 4 20 7 20 3 0 6 9 6 19 0 11 -4 17
-8 15 -12 -7 -10 14 3 38 7 13 7 18 1 14 -6 -4 -10 2 -9 14 1 11 4 20 7 20 3
0 6 9 6 19 0 11 -4 17 -8 15 -12 -7 -10 14 3 38 7 13 7 18 1 14 -6 -4 -10 2
-9 14 1 11 4 20 7 20 3 0 6 9 6 19 0 11 -4 17 -8 15 -12 -7 -10 14 3 38 7 13
7 18 1 14 -6 -4 -10 2 -9 14 1 11 4 20 7 20 3 0 6 9 6 19 0 11 -4 17 -8 15
-12 -7 -10 14 3 38 7 13 7 18 1 14 -6 -4 -10 2 -9 14 1 11 4 20 7 20 3 0 6 9
6 19 0 11 -4 17 -8 15 -12 -7 -10 14 3 38 7 13 7 18 1 14 -6 -4 -10 2 -9 14 1
11 4 20 7 20 3 0 6 9 6 19 0 11 -4 17 -8 15 -12 -7 -10 14 3 38 7 13 7 18 1
14 -6 -4 -10 2 -9 14 1 11 4 20 7 20 3 0 6 9 6 19 0 11 -4 17 -8 15 -12 -7
-10 14 3 38 7 13 7 18 1 14 -6 -4 -10 2 -9 14 1 11 4 20 7 20 3 0 6 9 6 19 0
11 -4 17 -8 15 -12 -7 -10 14 3 38 7 13 7 18 1 14 -6 -4 -10 2 -9 14 1 11 4
20 7 20 3 0 6 9 6 19 0 11 -4 17 -8 15 -12 -7 -10 14 3 38 7 13 7 18 1 14 -6
-4 -10 2 -9 14 1 11 4 20 7 20 3 0 6 9 6 19 0 11 -4 17 -8 15 -12 -7 -10 14 3
38 7 13 7 18 1 14 -6 -4 -10 2 -9 14 1 11 4 20 7 20 3 0 6 9 6 19 0 11 -4 17
-8 15 -12 -7 -10 14 3 38 7 13 7 18 1 14 -6 -4 -10 2 -9 14 1 11 4 20 7 20 3
0 6 9 6 19 0 11 -4 17 -8 15 -12 -7 -10 14 3 38 7 13 7 18 1 14 -6 -4 -10 2
-9 14 1 11 4 20 7 20 3 0 6 9 6 19 0 11 -4 17 -8 15 -12 -7 -10 14 3 38 7 13
7 18 1 14 -6 -4 -10 2 -9 14 1 11 4 20 7 20 3 0 6 9 6 19 0 11 -4 17 -8 15
-12 -7 -10 14 3 38 7 13 7 18 1 14 -6 -4 -10 2 -9 14 1 11 4 20 7 20 3 0 6 9
6 19 0 11 -4 17 -8 15 -12 -7 -10 14 3 38 7 13 7 18 1 14 -6 -4 -10 2 -9 14 1
11 4 20 7 20 3 0 6 9 6 19 0 11 -4 17 -8 15 -12 -7 -10 14 3 38 7 13 7 18 1
14 -6 -4 -10 2 -9 14 1 11 4 20 7 20 3 0 6 9 6 19 0 11 -4 17 -8 15 -12 -7
-10 14 3 38 7 13 7 18 1 14 -6 -4 -10 2 -9 14 1 11 4 20 7 20 3 0 6 9 6 19 0
11 -4 17 -8 15 -12 -7 -10 14 3 38 7 13 7 18 1 14 -6 -4 -10 2 -9 14 1 11 4
20 7 20 3 0 6 9 6 19 0 11 -4 17 -8 15 -12 -7 -10 14 3 38 7 13 7 18 1 14 -6
-4 -10 2 -9 14 1 11 4 20 7 20 3 0 6 9 6 19 0 11 -4 17 -8 15 -12 -7 -10 14 3
38 7 13 7 18 1 14 -6 -4 -10 2 -9 14 1 11 4 20 7 20 3 0 6 9 6 19 0 11 -4 17
-8 15 -11 -7 -10 4 3 28 8 15 8 19 0 14 -14 -9 -14 9 0 36 7 13 7 18 1 14 -6
-4 -10 2 -9 14 1 11 4 20 7 20 3 0 6 9 6 19 0 11 -4 17 -8 15 -12 -7 -10 14 3
38 7 13 7 18 1 14 -6 -4 -10 2 -9 14 1 11 4 20 7 20 3 0 6 9 6 19 0 11 -4 17
-8 15 -12 -7 -10 14 3 38 7 13 7 18 1 14 -6 -4 -10 2 -9 14 1 11 4 20 7 20 3
0 6 9 6 19 0 11 -4 17 -8 15 -12 -7 -10 14 3 38 7 13 7 18 1 14 -6 -4 -10 2
-9 14 1 11 4 20 7 20 3 0 6 9 6 19 0 11 -4 17 -8 15 -12 -7 -10 14 3 38 7 13
7 18 1 14 -6 -4 -10 2 -9 14 1 11 4 20 7 20 3 0 6 9 6 19 0 11 -4 17 -8 15
-12 -7 -10 14 3 38 7 13 7 18 1 14 -6 -4 -10 2 -9 14 1 11 4 20 7 20 3 0 6 9
6 19 0 11 -4 17 -8 15 -12 -7 -10 14 3 38 7 13 7 18 1 14 -6 -4 -10 2 -9 14 1
11 4 20 7 20 3 0 6 9 6 19 0 11 -4 17 -8 15 -12 -7 -10 14 3 38 7 13 7 18 1
14 -6 -4 -10 2 -9 14 1 11 4 20 7 20 3 0 6 9 6 19 0 11 -4 17 -8 15 -12 -7
-10 14 3 38 7 13 7 18 1 14 -6 -4 -10 2 -9 14 1 11 4 20 7 20 3 0 6 9 6 19 0
11 -4 17 -8 15 -12 -7 -10 14 3 38 8 15 8 19 -1 13 -13 -8 -10 26 3 36 4 3 0
12 -9 20 -16 12 -17 12 -9 -1 6 -12 5 -12 -5 -3 -7 6 -13 30 -14 52 -1 23 -8
47 -15 54 -11 9 -13 9 -7 0 12 -22 -19 -15 -45 10 -14 12 -27 27 -29 32 -3 6
-10 9 -17 9 -6 -1 -10 7 -8 17 4 19 -99 19 -4391 19 l-4394 0 0 -227z m5473
-4090 c10 -2 16 1 12 6 -3 6 6 7 22 2 16 -4 39 -6 53 -5 14 1 30 -2 37 -8 7
-5 13 -5 17 1 3 5 22 9 41 9 19 0 32 -4 29 -9 -3 -5 0 -9 6 -9 6 0 9 -4 6 -9
-3 -5 1 -12 10 -15 8 -3 12 -2 9 4 -3 6 3 10 14 10 11 0 23 -5 27 -12 4 -7 3
-8 -4 -4 -8 5 -10 2 -6 -8 3 -9 10 -13 15 -10 5 3 9 0 9 -7 0 -7 7 -4 15 7 8
10 14 15 13 9 -3 -13 33 -55 47 -55 5 0 3 5 -5 10 -13 8 -12 10 3 10 10 0 20
-7 23 -15 3 -8 14 -17 24 -20 12 -4 17 -12 13 -21 -3 -8 -2 -14 3 -13 18 3 37
-1 31 -7 -8 -8 16 -33 26 -27 4 2 7 -3 7 -11 0 -8 10 -18 21 -21 17 -6 19 -9
8 -16 -12 -7 -11 -9 1 -10 8 -1 18 -1 21 -1 4 1 9 -14 11 -33 2 -19 0 -35 -4
-35 -4 0 -8 -5 -8 -11 0 -6 7 -8 16 -5 8 3 13 2 10 -3 -3 -5 2 -12 11 -15 15
-6 15 -8 3 -16 -11 -7 -11 -10 -2 -10 13 0 10 -38 -4 -61 -4 -7 -3 -9 3 -6 7
4 10 -3 9 -17 0 -13 -4 -22 -8 -19 -5 2 -8 -1 -8 -6 0 -6 5 -11 10 -11 11 0 7
-41 -6 -61 -5 -8 -3 -9 5 -5 15 10 11 -25 -4 -36 -6 -5 -5 -8 3 -8 9 0 10 -5
3 -18 -7 -13 -7 -22 1 -30 9 -9 8 -18 0 -37 -7 -15 -8 -24 -2 -20 5 3 10 1 10
-4 0 -6 -6 -11 -12 -11 -10 0 -10 -2 0 -9 10 -6 8 -10 -8 -14 -16 -4 -21 -11
-17 -22 4 -9 -2 -24 -12 -34 -11 -11 -17 -22 -14 -25 6 -6 -13 -10 -31 -7 -5
1 -6 -12 -2 -29 3 -17 2 -29 -3 -26 -5 3 -12 -1 -15 -10 -3 -8 -11 -12 -16 -9
-6 4 -9 1 -8 -7 2 -7 -4 -12 -12 -10 -8 2 -12 0 -7 -4 4 -4 -4 -15 -19 -24
-14 -10 -25 -20 -25 -24 3 -18 0 -26 -6 -23 -5 1 -9 -2 -10 -7 -1 -10 -24 -26
-36 -26 -5 0 -5 4 -2 10 3 6 -1 7 -9 4 -9 -3 -16 -10 -16 -16 0 -5 -4 -6 -10
-3 -5 3 -10 2 -10 -4 0 -5 6 -11 13 -14 6 -2 -12 -3 -41 -2 -30 2 -51 1 -48
-2 3 -3 -1 -11 -7 -18 -8 -8 -37 -12 -77 -11 -36 1 -73 -2 -82 -6 -10 -5 -19
-4 -23 2 -4 6 -11 8 -16 4 -5 -3 -17 0 -26 8 -14 11 -16 11 -8 -1 6 -11 3 -13
-12 -9 -11 3 -27 1 -36 -4 -12 -6 -19 -3 -26 10 -6 11 -8 22 -6 26 3 3 2 4 -2
1 -3 -3 -13 1 -21 8 -13 9 -14 9 -8 0 4 -8 2 -13 -7 -13 -8 0 -17 9 -20 21 -5
17 -11 20 -37 15 -27 -4 -31 -2 -27 13 3 15 -2 18 -27 18 -20 -1 -30 4 -28 12
1 7 -2 10 -8 6 -5 -3 -13 1 -16 9 -3 9 -12 16 -20 16 -8 0 -13 6 -11 13 1 6
-3 11 -10 10 -8 -2 -10 4 -6 15 3 9 3 14 -1 10 -4 -3 -21 8 -37 24 -23 24 -26
34 -18 45 9 11 8 12 -5 7 -20 -8 -21 0 0 20 9 10 11 16 4 16 -15 0 -41 26 -33
34 4 3 -1 6 -11 6 -9 0 -14 5 -11 10 3 6 -1 10 -11 10 -13 0 -14 3 -4 15 10
12 10 15 0 15 -10 0 -10 3 0 15 10 12 10 15 0 15 -9 0 -9 4 1 17 12 15 12 16
-1 8 -13 -8 -13 -7 -1 8 10 13 10 17 1 17 -10 0 -10 3 0 15 10 12 10 15 0 15
-10 0 -10 3 0 15 10 12 10 15 -1 15 -11 0 -11 2 1 10 11 7 11 10 2 10 -10 0
-10 5 -2 20 8 14 8 20 0 20 -8 0 -8 6 0 20 8 15 8 20 -2 20 -9 0 -9 3 2 10 13
9 13 10 0 10 -13 0 -13 1 0 10 13 8 13 10 1 10 -12 0 -12 3 -3 12 9 9 9 15 -1
27 -9 12 -9 13 1 7 7 -4 12 -2 12 4 0 6 4 9 9 6 5 -3 12 2 15 11 4 9 1 20 -6
25 -9 5 -9 8 -1 8 6 0 9 9 6 21 -4 15 0 22 16 26 11 3 19 9 16 13 -9 15 14 62
27 54 7 -4 8 -3 4 4 -3 6 3 16 14 22 11 6 20 17 20 25 0 7 9 16 19 20 11 3 27
17 36 31 13 20 19 23 30 14 11 -9 17 -6 31 15 13 20 19 23 25 13 6 -9 9 -9 9
-1 0 6 8 10 19 8 12 -2 18 2 17 13 -1 10 7 17 22 18 39 3 41 4 36 19 -4 8 -1
15 5 15 6 0 11 -6 11 -12 0 -10 3 -9 9 1 5 7 14 10 20 7 6 -4 11 -2 11 4 0 6
5 8 13 3 6 -4 20 -9 30 -10z m-1908 -433 c3 -5 1 -10 -4 -10 -6 0 -11 5 -11
10 0 6 2 10 4 10 3 0 8 -4 11 -10z"/>
<path d="M5547 4944 c4 -12 3 -15 -5 -10 -23 14 -64 18 -56 5 5 -8 3 -9 -7 -3
-16 10 -44 15 -35 7 3 -3 -13 -23 -35 -44 -22 -21 -38 -43 -35 -48 3 -5 -2 -8
-11 -7 -12 1 -18 -6 -18 -22 0 -13 -8 -28 -18 -33 -12 -7 -17 -20 -15 -43 1
-17 -2 -38 -7 -45 -5 -10 -4 -12 4 -7 18 12 39 -11 35 -39 -1 -16 3 -25 12
-25 8 0 14 -5 14 -11 0 -5 5 -7 12 -3 8 5 9 2 5 -9 -7 -20 8 -23 17 -4 4 6 4
2 2 -10 -2 -13 0 -23 6 -23 5 0 19 -10 30 -22 11 -13 17 -17 13 -10 -3 6 -1
12 4 12 6 0 11 -4 11 -10 0 -12 22 -9 32 5 5 6 8 5 8 -3 0 -10 5 -10 21 -1 13
7 19 7 15 1 -4 -6 2 -10 14 -9 11 1 20 6 20 12 0 5 4 4 9 -4 7 -10 13 -11 27
-2 11 6 15 11 11 11 -4 0 -2 6 5 14 9 9 19 11 30 5 17 -9 36 6 24 18 -9 9 14
44 24 38 6 -3 7 1 4 9 -4 10 -1 16 7 16 10 0 10 3 1 12 -8 8 -9 15 -1 25 9 10
8 13 -1 13 -10 0 -10 3 0 15 7 8 17 12 23 8 6 -3 7 -1 3 5 -4 7 -1 12 6 12 9
0 9 3 -2 10 -12 8 -12 10 -1 10 11 0 11 3 1 15 -7 9 -20 13 -28 10 -12 -4 -13
-3 -2 10 10 12 10 15 -1 15 -11 0 -11 2 1 10 11 7 11 10 2 10 -7 0 -10 5 -7
10 3 6 -1 10 -9 10 -9 0 -16 7 -16 16 0 10 -6 14 -14 11 -8 -3 -17 1 -20 9 -4
10 -2 12 6 8 7 -4 8 -3 4 4 -4 7 -13 12 -21 12 -8 0 -20 8 -27 18 -7 10 -20
17 -28 17 -8 -1 -23 2 -32 7 -14 7 -16 5 -11 -8z"/>
<path d="M9535 8638 c-5 -14 -84 -16 -104 -4 -6 4 -11 1 -11 -6 0 -9 -3 -9
-10 2 -6 9 -10 10 -10 3 0 -7 -9 -10 -21 -8 -17 4 -19 2 -8 -11 10 -12 9 -13
-5 -8 -10 4 -16 1 -16 -7 0 -11 -3 -11 -10 1 -7 11 -10 11 -10 2 0 -7 -5 -10
-12 -6 -6 4 -8 3 -5 -3 4 -6 -5 -18 -18 -27 -14 -9 -23 -21 -20 -26 3 -6 -1
-7 -10 -4 -11 5 -14 2 -8 -12 4 -12 3 -15 -5 -10 -7 4 -12 3 -12 -3 0 -6 -7
-8 -15 -5 -8 4 -15 2 -15 -4 0 -6 5 -12 11 -14 5 -2 7 -11 4 -21 -4 -9 -11
-14 -16 -11 -5 3 -9 -2 -9 -10 0 -9 -4 -16 -9 -16 -9 0 -7 -42 3 -59 4 -5 -2
-14 -11 -20 -10 -6 -13 -11 -6 -11 8 0 11 -17 9 -52 -1 -29 1 -63 6 -76 4 -13
4 -21 0 -18 -10 6 -7 -138 3 -155 5 -7 4 -10 -1 -6 -11 6 -10 -186 1 -204 5
-7 4 -10 -1 -6 -5 3 -9 -20 -9 -54 0 -32 4 -59 10 -59 6 0 4 -4 -3 -9 -8 -4
-14 -12 -14 -16 0 -4 6 -12 14 -16 11 -7 11 -9 -1 -9 -11 0 -11 -3 0 -17 8 -9
10 -14 4 -11 -6 4 -10 -26 -10 -82 0 -48 4 -86 8 -83 5 3 4 -4 -2 -15 -13 -25
-14 -35 -2 -27 6 3 7 -6 2 -23 -5 -17 -5 -36 1 -47 6 -10 7 -15 1 -12 -11 7
-9 -85 2 -104 5 -7 4 -10 -1 -6 -12 7 -10 -135 1 -154 5 -7 4 -10 -1 -6 -12 7
-10 -135 1 -154 5 -7 4 -10 -1 -6 -12 7 -10 -135 1 -154 5 -7 4 -10 -1 -6 -11
6 -10 -186 1 -204 5 -7 4 -10 -1 -6 -5 3 -9 -20 -9 -54 0 -32 4 -59 10 -59 6
0 4 -4 -3 -9 -8 -4 -14 -12 -14 -16 0 -4 6 -12 14 -16 11 -7 11 -9 -1 -9 -11
0 -11 -3 0 -17 8 -9 10 -14 4 -11 -6 4 -10 -26 -10 -82 0 -48 4 -86 8 -83 5 3
4 -4 -2 -15 -13 -25 -14 -35 -2 -27 6 3 7 -6 2 -23 -5 -17 -5 -36 1 -47 6 -10
7 -15 1 -12 -11 7 -9 -85 2 -104 5 -7 4 -10 -1 -6 -12 7 -10 -135 1 -154 5 -7
4 -10 -1 -6 -12 7 -10 -135 1 -154 5 -7 4 -10 -1 -6 -12 7 -10 -135 1 -154 5
-7 4 -10 -1 -6 -11 6 -10 -186 1 -204 5 -7 4 -10 -1 -6 -5 3 -9 -20 -9 -54 0
-32 4 -59 10 -59 6 0 4 -4 -3 -9 -8 -4 -14 -12 -14 -16 0 -4 6 -12 14 -16 11
-7 11 -9 -1 -9 -11 0 -11 -3 0 -17 8 -9 9 -14 3 -10 -12 7 -11 -64 2 -84 4 -7
3 -9 -4 -5 -7 4 -10 -1 -9 -14 1 -11 7 -20 14 -20 7 0 13 -5 13 -11 0 -5 5 -7
11 -3 8 4 8 0 0 -15 -8 -14 -8 -21 -1 -21 5 0 9 -6 7 -12 -1 -7 4 -12 11 -11
6 2 12 -3 12 -10 0 -8 10 -22 23 -33 12 -10 16 -12 10 -4 -7 8 -13 18 -13 23
0 5 9 -2 20 -16 11 -14 20 -33 20 -42 0 -14 3 -15 13 -6 14 11 27 5 27 -13 0
-6 -5 -4 -10 4 -6 9 -10 10 -10 3 0 -6 5 -15 12 -19 21 -13 58 -13 58 -1 0 8
3 9 8 1 8 -12 51 -13 69 -1 6 4 17 2 25 -5 16 -16 42 -22 34 -9 -4 5 -2 12 4
16 5 3 10 2 10 -4 0 -10 18 -10 37 2 6 4 14 3 18 -3 4 -7 12 -7 26 0 15 9 19
7 19 -7 0 -10 4 -14 8 -8 4 6 16 10 27 9 11 0 26 5 34 10 12 9 13 7 8 -7 -5
-13 -3 -16 6 -10 6 4 21 8 32 8 11 0 26 5 34 9 11 7 13 5 8 -8 -5 -12 -3 -15
6 -9 6 4 21 8 32 8 11 0 26 4 34 9 11 7 13 5 7 -10 -5 -15 -4 -16 5 -7 6 6 18
9 27 6 11 -5 13 -3 7 8 -8 12 -6 12 8 0 13 -10 20 -11 30 -2 10 8 17 7 26 -2
9 -9 14 -9 21 3 7 10 10 11 10 3 0 -7 3 -12 8 -12 36 6 48 -16 27 -50 -6 -10
-4 -12 6 -6 12 8 12 6 0 -8 -9 -11 -10 -17 -2 -17 6 0 11 -5 11 -11 0 -5 -6
-7 -12 -3 -10 6 -10 4 -3 -7 6 -8 10 -30 10 -51 -1 -29 2 -36 16 -33 13 3 15
-2 11 -17 -4 -16 -2 -19 9 -13 8 5 7 1 -3 -11 -14 -16 -15 -23 -6 -32 7 -7 8
-12 2 -12 -5 0 -2 -5 6 -10 10 -6 11 -10 3 -10 -7 0 -13 -4 -13 -10 0 -5 3 -9
8 -9 27 5 34 -1 21 -18 -10 -11 -10 -14 -1 -9 6 4 12 2 12 -3 0 -6 -6 -11 -12
-11 -9 0 -8 -3 2 -9 8 -6 17 -8 21 -5 10 6 19 -24 13 -41 -4 -8 -1 -15 6 -15
6 0 8 -4 5 -10 -3 -5 0 -7 8 -4 12 4 15 -3 13 -30 -1 -29 6 -44 38 -78 25 -26
35 -43 27 -46 -8 -3 -5 -9 9 -19 12 -9 19 -21 16 -30 -4 -11 -1 -13 14 -8 11
4 20 3 19 -2 -3 -18 1 -36 7 -30 8 7 34 -17 34 -32 0 -5 9 -13 20 -16 11 -4
18 -10 15 -15 -3 -4 4 -10 16 -13 17 -5 18 -3 7 11 -11 13 -11 15 2 7 35 -19
39 -26 30 -50 -7 -17 -5 -25 6 -29 9 -3 12 -1 9 4 -3 6 -1 10 4 10 6 0 11 -8
11 -18 0 -16 9 -20 57 -24 7 -1 10 -4 8 -8 -2 -4 2 -16 10 -26 15 -19 15 -18
9 1 -3 11 2 7 11 -9 11 -18 20 -25 24 -18 5 8 13 5 25 -9 9 -11 24 -18 32 -15
8 3 14 1 14 -4 0 -6 3 -9 8 -9 4 1 14 1 22 0 13 -1 13 -2 0 -11 -12 -8 -8 -10
15 -11 17 -1 36 -1 43 0 8 1 21 -6 30 -16 21 -22 42 -27 42 -10 0 8 3 8 9 -2
8 -13 12 -13 27 0 10 8 15 9 12 4 -4 -6 -3 -17 2 -25 7 -11 49 -14 217 -15
205 0 208 0 231 23 12 13 22 18 22 13 0 -6 7 -11 16 -11 9 0 12 5 8 13 -6 9
-3 8 8 -1 12 -9 22 -10 35 -4 10 5 24 7 32 4 10 -3 11 0 5 9 -13 21 -13 38 -2
46 7 4 8 1 4 -8 -4 -8 0 -5 8 5 9 11 16 14 16 8 0 -9 5 -10 19 -2 14 7 20 7
23 -2 3 -8 11 -9 24 -3 10 4 22 7 26 7 5 -1 7 1 7 6 -4 26 1 34 16 22 10 -8
15 -9 15 -2 0 7 7 9 17 5 13 -5 15 -2 10 11 -4 10 -3 15 3 11 6 -3 10 0 10 7
0 9 3 9 10 -2 6 -10 10 -11 10 -3 0 7 3 12 8 11 4 -1 21 10 37 26 17 16 24 26
16 21 -9 -5 -12 -4 -7 3 3 6 15 9 26 7 13 -3 17 1 13 11 -3 8 0 14 7 14 6 0 8
5 4 13 -6 8 -3 8 9 -1 14 -12 16 -11 12 7 -2 12 0 21 5 21 5 0 31 21 57 47 26
26 42 43 34 38 -10 -6 -12 -4 -7 4 6 9 11 9 24 -1 10 -9 13 -9 9 -1 -4 7 4 23
20 37 15 14 23 26 17 26 -16 0 -10 38 8 60 9 10 15 20 13 22 -2 1 3 9 11 16 9
8 14 9 14 2 0 -6 5 -8 10 -5 6 4 7 13 1 24 -10 17 -1 41 15 44 5 1 8 8 8 15
-1 6 3 12 10 12 6 0 4 5 -4 10 -8 5 -10 10 -4 10 5 0 19 7 30 16 10 8 12 12 4
8 -13 -7 -13 -6 -1 10 13 15 13 19 0 27 -11 7 -11 9 0 9 10 0 11 3 2 14 -8 10
-9 16 -1 21 6 3 8 10 5 15 -3 4 3 14 12 21 14 12 16 12 8 0 -5 -10 -4 -12 4
-7 13 9 11 58 -4 68 -6 5 -5 8 4 8 8 0 11 6 7 16 -5 14 -4 15 9 4 8 -7 15 -11
16 -9 8 33 5 107 -4 118 -9 12 -9 13 1 7 9 -6 12 -1 8 17 -4 22 -1 24 30 21
24 -2 32 1 27 9 -4 7 1 5 12 -3 22 -18 18 -18 38 -2 11 9 17 10 22 2 5 -8 10
-8 20 0 9 8 17 7 28 -5 9 -9 18 -11 22 -6 3 6 13 7 22 4 12 -5 14 -3 8 8 -7
12 -6 12 7 1 10 -8 19 -9 22 -3 8 13 47 1 40 -13 -3 -6 2 -2 10 8 9 11 16 15
16 10 0 -14 43 -15 52 -1 5 8 8 8 8 1 0 -13 58 -12 79 0 9 6 12 5 8 -1 -4 -6
4 -10 18 -10 15 0 22 4 18 11 -3 6 0 6 8 -1 7 -7 17 -13 22 -13 4 0 5 6 1 13
-6 9 -5 9 7 0 23 -18 25 -19 42 -5 11 9 17 10 22 2 5 -8 10 -8 20 0 9 8 17 6
29 -5 11 -11 16 -12 16 -4 0 7 3 9 6 6 4 -3 15 -2 25 4 15 8 19 6 19 -8 0 -10
4 -14 8 -8 4 6 16 10 27 9 11 0 26 5 34 10 12 9 13 7 8 -7 -5 -13 -3 -16 6
-10 6 4 21 8 32 8 11 0 26 5 34 9 11 7 13 5 8 -8 -5 -12 -3 -15 6 -9 6 4 21 8
32 8 11 0 26 4 34 9 11 7 13 5 7 -9 -5 -14 -3 -15 6 -8 7 6 23 9 36 7 16 -3
21 0 16 8 -5 7 -3 8 7 2 19 -12 32 -12 48 0 12 9 13 8 6 -3 -6 -10 -4 -12 4
-7 7 5 10 14 7 21 -3 9 2 12 15 10 11 -2 17 0 14 6 -4 5 2 9 12 10 10 0 13 3
6 6 -19 7 -16 21 3 19 10 0 18 8 20 22 3 17 0 21 -8 16 -9 -6 -9 -3 1 9 7 9
17 15 21 12 13 -8 19 22 7 34 -8 8 -8 11 0 11 13 0 12 32 -2 42 -7 5 -6 8 1 8
6 0 9 14 7 33 -5 40 -5 38 -1 119 2 37 0 64 -5 61 -5 -3 -4 4 2 16 8 15 9 21
1 21 -6 0 -9 4 -6 9 11 17 15 82 6 76 -6 -4 -10 -1 -10 4 0 6 4 11 8 11 10 0
9 36 -1 46 -3 4 -2 14 3 24 5 10 6 20 3 24 -4 4 -6 25 -4 46 2 32 -1 40 -14
40 -9 0 -19 9 -22 20 -3 11 -12 20 -20 20 -8 0 -11 5 -8 10 3 6 -1 10 -10 10
-9 0 -13 5 -10 10 3 6 -1 10 -10 10 -10 0 -13 5 -9 13 5 8 2 8 -9 -2 -14 -11
-17 -11 -17 0 0 11 -2 11 -10 -1 -9 -13 -11 -13 -20 0 -9 13 -10 13 -10 0 0
-13 -1 -13 -10 0 -7 11 -10 11 -10 2 0 -10 -3 -10 -14 0 -8 7 -12 15 -10 17 2
2 -1 10 -7 18 -6 7 -7 13 -2 13 11 0 9 212 -1 229 -4 6 -3 11 2 11 11 0 10 76
-1 86 -4 4 1 16 10 27 11 12 12 17 4 12 -11 -6 -13 -3 -9 13 4 12 2 25 -4 28
-5 3 -2 15 9 27 10 11 12 17 4 12 -11 -6 -13 -3 -9 13 4 12 2 25 -4 28 -5 3
-2 15 9 27 10 11 12 17 4 12 -11 -6 -13 -3 -9 13 4 12 2 25 -4 28 -5 3 -2 15
9 27 10 11 13 17 7 14 -14 -8 -17 60 -3 69 5 3 1 17 -9 32 -9 14 -11 23 -4 19
18 -12 15 4 -5 20 -17 14 -17 14 1 9 16 -6 17 -4 6 9 -7 8 -16 12 -21 9 -5 -3
-9 2 -9 11 0 10 5 13 13 9 6 -4 4 2 -6 13 -14 16 -15 23 -6 28 8 6 6 11 -7 19
-18 11 -26 26 -27 54 0 12 -12 16 -31 13 -5 -1 -5 4 0 11 16 21 11 39 -16 53
-14 8 -20 14 -15 15 6 0 11 9 11 19 0 11 -3 19 -6 19 -19 -2 -30 3 -26 11 4 5
0 11 -6 14 -11 3 -10 7 0 19 10 13 9 18 -5 29 -11 9 -14 10 -9 2 4 -7 3 -13
-2 -13 -13 0 -24 29 -16 42 4 6 -2 6 -14 -1 -18 -10 -20 -8 -17 8 3 14 -1 18
-11 14 -8 -3 -14 1 -14 11 0 14 -11 20 -32 17 -4 0 -5 6 -1 15 4 10 -2 17 -16
21 -11 3 -18 10 -15 15 4 6 0 14 -7 19 -11 7 -11 9 -1 9 10 0 10 3 0 14 -7 8
-16 12 -20 9 -5 -2 -8 5 -8 16 0 12 -3 20 -7 20 -22 -4 -31 3 -28 20 3 14 -1
18 -11 14 -8 -3 -14 0 -14 7 0 6 -6 8 -12 4 -10 -6 -10 -4 0 7 16 17 15 39 -2
39 -8 0 -17 7 -20 16 -3 8 -2 13 3 10 5 -4 7 3 4 14 -3 11 -11 20 -18 20 -8 0
-17 9 -20 20 -3 11 -13 20 -21 20 -8 0 -14 10 -15 23 0 12 -3 16 -6 9 -2 -6
-9 -9 -14 -6 -6 4 -6 11 1 19 8 9 4 12 -16 9 -20 -2 -24 0 -15 9 8 8 5 15 -11
25 -15 8 -16 11 -5 8 11 -3 15 -2 12 4 -3 6 -13 10 -21 10 -8 0 -12 5 -9 10 3
6 2 10 -3 10 -6 0 -13 11 -16 25 -4 14 -13 25 -21 25 -7 0 -17 5 -21 12 -4 6
-3 8 4 4 6 -3 13 -2 16 3 4 5 -4 8 -17 7 -14 -2 -24 2 -24 10 0 7 4 11 8 8 4
-2 11 1 15 7 4 7 3 9 -3 6 -6 -4 -19 1 -29 9 -10 9 -13 12 -5 8 10 -5 12 -3 7
5 -5 7 -15 10 -23 7 -8 -3 -12 -2 -8 3 3 5 -1 12 -7 15 -7 3 -2 3 12 0 22 -5
21 -3 -7 15 -18 11 -33 25 -33 31 0 5 0 12 0 15 1 12 -26 33 -34 27 -5 -3 -6
3 -3 13 6 14 3 16 -13 12 -11 -3 -23 0 -27 5 -3 6 -1 8 4 5 7 -4 10 3 9 18 -1
28 -16 35 -16 8 0 -19 -10 -12 -14 10 -1 8 -8 22 -15 31 -12 14 -12 16 3 10 9
-3 16 -1 16 5 0 6 -3 10 -7 10 -25 -4 -43 3 -43 17 0 10 -6 14 -15 10 -8 -3
-14 -2 -14 2 3 20 -2 32 -15 32 -10 0 -13 7 -11 21 4 18 2 19 -11 8 -12 -10
-15 -10 -12 2 2 8 -2 13 -8 12 -6 -1 -11 4 -11 12 0 7 5 12 11 11 6 -2 8 -1 3
1 -4 3 -5 9 -2 14 4 5 -2 6 -12 2 -10 -3 -15 -3 -11 2 4 4 -11 25 -34 45 -29
27 -39 43 -34 55 6 16 4 16 -11 4 -9 -8 -14 -9 -10 -2 4 7 0 16 -10 22 -11 6
-13 11 -5 11 10 0 10 3 0 14 -7 8 -16 12 -20 9 -5 -2 -8 5 -8 16 0 11 -5 23
-12 27 -7 4 -8 3 -4 -4 4 -7 2 -10 -7 -6 -15 6 -17 45 -2 57 6 5 4 7 -5 6 -32
-3 -38 1 -33 24 5 18 3 20 -8 10 -15 -15 -33 -17 -24 -4 3 5 -1 16 -9 24 -8 8
-12 18 -8 22 4 5 -1 5 -10 2 -20 -7 -25 8 -5 17 6 4 2 4 -10 2 -15 -3 -23 1
-23 10 0 8 -4 14 -10 14 -5 0 -10 7 -10 16 0 8 -4 12 -10 9 -5 -3 -10 -1 -10
5 0 6 -5 8 -12 4 -7 -4 -8 -3 -4 5 4 6 0 14 -8 17 -9 3 -13 11 -9 18 4 7 1 7
-8 -1 -13 -10 -16 -10 -16 2 0 8 5 15 11 15 6 0 4 5 -4 10 -13 9 -13 11 0 21
13 9 13 10 0 7 -22 -7 -37 13 -32 41 3 15 1 23 -3 19 -9 -9 -35 16 -35 33 0 7
-3 10 -6 6 -9 -9 -56 42 -49 53 3 6 -1 7 -9 4 -11 -4 -16 0 -16 10 0 9 -4 16
-10 16 -5 0 -10 7 -10 15 0 8 -5 15 -11 15 -5 0 -7 -6 -3 -12 4 -7 -2 -5 -13
5 -11 9 -23 14 -27 10 -4 -5 -7 -3 -6 2 6 29 -1 44 -17 38 -12 -5 -15 -2 -11
9 5 11 0 15 -15 14 -12 -1 -28 7 -35 16 -7 10 -17 16 -22 13 -4 -3 -11 1 -14
7 -3 7 -3 2 0 -12 l5 -25 -14 24 c-11 18 -16 20 -20 10 -3 -9 -8 -10 -14 -4
-10 12 -64 14 -56 2 3 -5 -4 -4 -16 2 -15 8 -21 9 -21 1 0 -6 -5 -8 -11 -5
-16 11 -59 13 -59 4 0 -5 -7 -6 -15 -3 -8 4 -12 11 -9 18 3 6 0 4 -8 -4 -13
-15 -101 -22 -91 -7 2 4 -1 7 -6 7 -6 0 -11 -5 -11 -12 0 -9 -3 -9 -11 -1 -7
7 -21 8 -38 3 -15 -4 -35 -3 -44 2 -11 6 -17 5 -17 -2 0 -7 -6 -8 -16 -2 -8 5
-36 6 -60 2 -26 -4 -47 -3 -51 3 -3 5 -9 3 -14 -4 -6 -10 -9 -11 -9 -1 0 6 -5
12 -11 12 -5 0 -8 -4 -5 -8 2 -4 -22 -5 -54 -2 -32 3 -56 2 -54 -2 3 -4 -5 -4
-17 0 -12 5 -41 5 -65 2 -24 -4 -41 -3 -38 2 3 4 0 8 -5 8 -6 0 -11 -5 -11
-12 0 -9 -3 -9 -11 -1 -8 8 -20 8 -34 3 -13 -5 -25 -7 -27 -4 -9 8 -68 11 -68
3 0 -5 -7 -6 -15 -3 -8 4 -12 11 -9 18 3 6 0 4 -8 -4 -13 -15 -101 -22 -91 -7
2 4 -1 7 -6 7 -6 0 -11 -5 -11 -12 0 -9 -3 -9 -11 -1 -7 7 -21 8 -38 3 -15 -4
-35 -3 -44 2 -11 6 -17 5 -17 -2 0 -7 -6 -8 -17 -1 -10 5 -26 5 -41 0 -15 -6
-21 -5 -17 1 3 6 1 10 -4 10 -6 0 -11 -5 -11 -12 0 -9 -3 -9 -11 -1 -7 7 -20
8 -33 4 -11 -5 -30 -5 -40 -1 -11 3 -39 3 -63 0 -25 -4 -46 -3 -50 3 -3 5 -9
3 -14 -4 -6 -10 -9 -11 -9 -1 0 6 -5 12 -11 12 -5 0 -8 -4 -5 -8 2 -4 -22 -5
-54 -2 -32 3 -56 2 -54 -2 3 -4 -2 -5 -10 -2 -23 9 -106 10 -106 2 0 -4 -7 -5
-15 -2 -8 4 -12 10 -9 15 3 5 3 9 -1 9 -3 0 -8 -6 -10 -12z m1870 -27 c3 -5 2
-12 -3 -15 -5 -3 -9 1 -9 9 0 17 3 19 12 6z m-1479 -319 c-4 -7 65 -8 100 -1
5 1 14 0 19 -1 22 -4 148 1 158 7 5 3 7 1 3 -5 -3 -6 -2 -13 4 -17 5 -3 10 -1
10 4 0 6 10 11 23 11 12 0 31 0 42 0 50 0 59 -2 79 -12 18 -9 19 -9 9 3 -9 11
-7 14 12 14 13 0 21 -3 20 -6 -3 -5 73 -3 101 2 5 1 14 0 19 -1 22 -4 148 1
158 7 5 3 7 1 3 -5 -3 -6 -2 -13 4 -17 5 -3 10 -1 10 4 0 6 10 11 23 11 12 0
31 0 42 0 50 0 59 -2 79 -12 18 -9 19 -9 9 3 -9 11 -7 14 12 14 13 0 21 -3 20
-6 -3 -5 73 -3 101 2 5 1 14 0 19 -1 22 -4 148 1 158 7 5 3 7 1 3 -5 -3 -6 -2
-13 4 -17 5 -3 10 -2 10 3 0 6 16 10 35 10 19 0 32 -4 29 -9 -3 -5 0 -9 6 -9
6 0 9 -4 6 -8 -3 -5 10 -8 28 -7 22 2 33 -2 33 -11 0 -7 -4 -11 -9 -8 -4 3 -8
3 -8 0 0 -3 9 -10 19 -16 14 -7 22 -7 27 2 5 7 3 8 -6 3 -9 -5 -11 -4 -6 4 6
8 12 9 20 2 7 -6 15 -9 18 -6 2 3 5 -2 6 -10 1 -8 3 -21 4 -29 1 -8 7 -12 14
-9 6 2 15 -1 19 -6 3 -6 10 -9 15 -6 4 3 6 -5 2 -17 -4 -15 -2 -19 7 -13 10 6
11 3 2 -13 -9 -17 -8 -22 10 -27 14 -5 19 -13 16 -26 -4 -16 -2 -17 15 -8 18
10 20 9 15 -5 -4 -9 -2 -16 3 -16 5 0 6 -8 3 -17 -6 -15 -4 -16 8 -6 13 10 16
10 17 -2 1 -8 3 -22 4 -30 1 -8 10 -15 21 -15 14 0 18 -5 15 -18 -4 -13 0 -18
15 -18 12 1 27 -11 39 -32 10 -18 15 -31 10 -28 -5 3 -9 -2 -9 -10 0 -8 6 -13
14 -10 8 3 13 -2 13 -15 0 -11 5 -17 10 -14 6 3 10 1 10 -5 0 -6 4 -9 9 -6 5
3 8 -9 7 -28 -1 -23 3 -32 11 -29 7 3 13 0 13 -7 0 -6 5 -8 10 -5 9 6 14 -8
11 -27 0 -5 6 -8 15 -8 8 0 12 -4 9 -10 -3 -5 3 -10 14 -10 15 0 21 -6 21 -22
0 -12 3 -19 6 -15 3 3 20 -9 37 -26 17 -18 38 -31 47 -29 12 2 12 1 1 -6 -10
-8 -11 -14 -1 -32 8 -15 8 -20 1 -16 -6 4 -11 2 -11 -5 0 -6 8 -9 20 -6 10 3
19 2 18 -2 -3 -25 3 -33 16 -22 12 10 13 8 9 -10 -5 -16 -3 -20 6 -14 10 6 11
3 2 -14 -10 -17 -9 -21 5 -21 9 0 18 -9 21 -20 3 -11 12 -20 20 -20 8 0 17 -9
20 -20 3 -11 12 -20 20 -20 8 0 12 -4 9 -8 -3 -5 6 -15 19 -22 13 -7 22 -17
19 -22 -3 -4 1 -8 9 -8 10 0 14 -9 12 -30 -1 -16 0 -29 4 -28 20 2 31 -4 31
-16 0 -8 5 -18 12 -22 7 -5 8 -2 3 7 -5 8 -5 11 -1 7 4 -3 6 -8 4 -11 -2 -2 4
-12 12 -22 9 -11 10 -16 3 -11 -7 4 -13 3 -13 -3 0 -5 9 -12 19 -16 13 -4 18
-12 14 -21 -3 -8 -2 -14 3 -13 22 4 44 -2 44 -12 0 -5 -4 -8 -8 -5 -5 3 -9 -1
-9 -8 0 -8 8 -11 19 -8 13 3 18 -1 18 -17 0 -14 4 -20 11 -15 6 3 15 0 20 -7
13 -20 11 -31 -3 -23 -10 6 -10 5 -1 -8 7 -8 10 -18 6 -22 -4 -4 0 -4 8 -1 15
6 18 -2 20 -46 0 -12 7 -15 22 -11 20 5 20 4 8 -11 -7 -9 -9 -17 -4 -17 12 0
11 -30 -2 -49 -5 -9 -4 -12 2 -8 7 4 10 -3 9 -18 0 -14 -5 -25 -11 -25 -5 0
-4 -4 3 -9 17 -11 12 -31 -15 -57 -12 -12 -19 -25 -15 -30 4 -4 -1 -4 -10 -1
-11 4 -17 2 -15 -6 1 -7 -4 -11 -12 -9 -12 3 -12 1 0 -14 13 -16 12 -16 -6 -7
-11 6 -64 9 -117 8 -72 -2 -96 0 -91 8 4 7 -1 6 -10 -1 -11 -9 -30 -12 -57 -8
-26 3 -40 2 -40 -6 0 -7 -4 -7 -12 0 -7 5 -56 8 -110 7 -72 -2 -96 0 -91 8 4
7 -1 6 -10 -1 -11 -9 -30 -12 -57 -8 -24 3 -40 1 -40 -5 0 -6 -5 -7 -12 -2
-19 12 -128 11 -121 -2 4 -5 -3 -2 -14 8 -16 14 -23 15 -29 6 -5 -8 -3 -10 6
-4 9 5 11 4 6 -3 -5 -9 -13 -9 -26 -2 -25 13 -33 13 -24 -2 5 -8 1 -8 -10 1
-15 13 -19 13 -27 0 -5 -9 -9 -10 -9 -2 0 8 -18 11 -61 7 -47 -3 -59 -1 -53 8
6 10 3 9 -9 0 -11 -9 -30 -12 -57 -8 -24 3 -40 1 -40 -5 0 -6 -5 -7 -12 -2
-19 12 -128 11 -121 -2 4 -5 -3 -2 -14 8 -16 14 -23 15 -29 6 -5 -8 -3 -10 6
-4 9 5 11 4 6 -3 -5 -9 -13 -9 -26 -2 -25 13 -33 13 -24 -2 5 -8 1 -8 -10 1
-15 13 -19 13 -27 0 -5 -8 -9 -9 -9 -2 0 6 -9 9 -22 5 -16 -4 -19 -2 -13 9 8
12 6 12 -8 1 -11 -9 -30 -12 -57 -8 -24 3 -40 1 -40 -5 0 -6 -6 -7 -12 -2 -7
4 -21 6 -32 4 -13 -2 -16 1 -10 11 6 11 5 11 -9 0 -11 -9 -30 -12 -57 -8 -24
3 -40 1 -40 -5 0 -6 -6 -7 -12 -2 -23 14 -50 14 -42 1 4 -7 -2 -5 -13 5 -16
14 -23 15 -29 6 -5 -8 -3 -10 6 -4 9 5 11 4 6 -3 -5 -9 -13 -9 -26 -2 -25 13
-33 13 -24 -2 5 -8 1 -8 -10 1 -15 13 -19 13 -27 0 -5 -9 -9 -10 -9 -2 0 8
-18 11 -61 7 -47 -3 -59 -1 -53 8 6 10 3 9 -9 0 -11 -9 -30 -12 -57 -8 -24 3
-40 1 -40 -5 0 -6 -5 -7 -12 -2 -19 12 -128 11 -121 -2 4 -5 -3 -2 -14 8 -16
14 -23 15 -29 6 -5 -8 -3 -10 6 -4 9 5 11 4 6 -3 -5 -9 -13 -9 -26 -2 -25 13
-33 13 -24 -2 4 -7 -3 -4 -16 7 -13 11 -20 15 -17 8 4 -6 3 -14 -3 -18 -5 -3
-10 -1 -10 5 0 6 -4 8 -10 5 -5 -3 -10 1 -10 9 0 8 -12 21 -27 28 -16 8 -29
23 -31 36 -2 14 -8 20 -15 15 -7 -4 -6 1 2 10 10 13 11 20 2 31 -7 9 -8 17 -2
20 11 7 9 25 -3 45 -7 10 -6 12 4 6 10 -6 12 -4 7 7 -3 9 0 21 6 28 9 10 9 11
0 6 -6 -3 -14 -2 -18 4 -3 5 -2 10 4 10 10 0 10 18 -2 37 -4 6 -3 14 2 17 11
7 9 25 -3 45 -6 10 -5 12 2 7 16 -10 15 7 0 23 -9 10 -9 12 -1 7 15 -8 14 36
-2 46 -7 5 -7 8 0 8 13 0 13 39 1 59 -6 9 -5 12 1 8 7 -4 10 6 10 28 -1 19 -6
35 -12 35 -5 0 -4 4 4 9 10 6 11 13 2 29 -8 14 -8 23 -1 27 8 5 8 11 0 20 -6
8 -7 16 -2 19 5 3 12 15 15 26 3 11 1 18 -3 15 -5 -3 -11 -1 -15 5 -3 5 -2 10
4 10 10 0 10 18 -2 37 -4 6 -3 14 2 17 11 7 9 25 -3 45 -7 10 -6 12 4 6 10 -6
12 -4 7 7 -3 9 0 21 6 28 9 10 9 11 0 6 -6 -3 -14 -2 -18 4 -3 5 -2 10 4 10
10 0 10 18 -2 37 -4 6 -3 14 2 17 11 7 9 25 -3 45 -6 10 -5 12 2 7 16 -10 15
7 0 23 -9 10 -9 12 -1 7 15 -8 14 36 -2 46 -7 5 -7 8 0 8 13 0 13 39 1 59 -6
9 -5 12 1 8 7 -4 10 6 10 28 -1 19 -6 35 -12 35 -5 0 -4 4 4 9 10 6 11 13 2
29 -8 14 -8 23 -1 27 8 5 8 11 0 20 -6 8 -7 16 -2 19 5 3 12 15 15 26 3 11 1
18 -3 15 -5 -3 -11 -1 -15 5 -3 5 -2 10 4 10 10 0 10 18 -2 37 -4 6 -3 14 2
17 11 7 9 25 -3 45 -7 10 -5 12 4 6 9 -6 10 -2 5 15 -5 17 -4 21 5 15 9 -5 11
-4 6 4 -8 12 36 61 55 61 5 0 8 3 8 8 -2 12 1 22 7 22 3 0 3 -4 0 -8z m1244
-3006 c19 1 40 3 45 4 20 5 36 0 30 -10 -3 -5 -1 -10 5 -10 6 0 8 -5 4 -12 -4
-7 -3 -8 5 -4 16 10 53 -3 45 -16 -4 -6 -2 -8 4 -4 6 3 13 2 17 -3 3 -6 13 -7
22 -4 12 5 14 3 8 -7 -6 -9 -4 -11 6 -5 7 5 27 10 45 10 27 2 31 -1 26 -18 -4
-15 -2 -18 9 -12 12 8 12 6 0 -8 -12 -15 -11 -17 4 -17 10 0 16 -3 12 -6 -8
-8 16 -33 26 -27 4 2 7 -4 7 -14 0 -15 2 -16 10 -3 8 12 10 10 10 -8 0 -13 4
-20 10 -17 9 6 13 -7 13 -47 0 -11 6 -15 19 -13 15 3 17 1 9 -9 -13 -16 -4
-27 15 -19 9 3 14 -2 14 -16 0 -12 6 -21 13 -21 9 0 9 -2 0 -8 -7 -4 -11 -17
-10 -29 0 -12 5 -19 9 -17 4 3 8 0 8 -6 0 -6 4 -8 10 -5 6 4 7 -1 3 -11 -4
-11 -3 -15 4 -11 7 5 9 0 6 -13 -3 -11 -10 -17 -16 -13 -6 4 -7 1 -1 -8 14
-23 15 -52 2 -61 -7 -4 -8 -8 -3 -8 6 0 10 -29 11 -64 0 -44 -3 -63 -10 -59
-6 4 -5 -1 3 -11 13 -15 13 -19 0 -27 -10 -6 -10 -9 -1 -9 6 0 12 -9 12 -21 0
-13 -4 -18 -12 -13 -10 5 -10 4 -1 -6 10 -11 7 -18 -12 -36 -14 -13 -33 -28
-42 -34 -17 -11 -17 -11 1 -6 15 5 17 4 7 -8 -6 -8 -10 -20 -9 -27 2 -9 -4
-13 -16 -11 -11 2 -15 -1 -11 -7 3 -6 1 -11 -6 -11 -9 0 -9 -3 0 -14 9 -11 8
-18 -4 -30 -9 -9 -22 -13 -28 -9 -7 4 -6 -1 2 -11 8 -9 10 -16 5 -15 -24 4
-34 -3 -35 -23 0 -13 -3 -17 -6 -10 -6 16 -33 -3 -33 -23 0 -8 -8 -11 -20 -8
-13 3 -20 0 -20 -8 0 -11 -2 -11 -10 1 -8 12 -10 11 -10 -7 0 -18 -5 -21 -24
-17 -15 2 -28 -2 -33 -11 -5 -8 -19 -16 -32 -18 -12 -2 -27 -10 -31 -18 -5 -8
-25 -15 -43 -15 -19 -1 -39 -4 -45 -8 -6 -3 -15 2 -21 11 -7 12 -11 13 -11 5
0 -8 -6 -12 -12 -9 -7 2 -25 1 -40 -4 -22 -6 -26 -4 -21 9 5 13 3 14 -7 5 -7
-6 -19 -9 -28 -6 -10 4 -13 2 -8 -5 5 -8 2 -10 -8 -6 -9 3 -13 10 -10 15 3 5
-2 6 -10 3 -9 -3 -13 -10 -10 -15 3 -5 -6 -4 -20 2 -14 7 -23 15 -21 19 3 4
-3 14 -12 21 -9 8 -14 9 -10 3 5 -8 -4 -11 -31 -9 -21 2 -36 8 -35 14 2 6 -7
11 -20 11 -13 0 -17 3 -11 8 9 5 8 11 -2 20 -8 7 -14 10 -14 6 0 -3 -8 0 -17
7 -11 10 -14 10 -9 2 4 -7 5 -13 2 -13 -9 0 -56 51 -56 60 0 5 -7 7 -15 3 -9
-3 -15 -2 -14 3 1 5 1 17 0 28 -1 16 -3 17 -18 5 -11 -10 -14 -10 -9 -1 4 6 2
12 -4 12 -6 0 -8 11 -6 25 3 14 1 25 -3 25 -4 0 -20 10 -34 23 -18 15 -25 30
-22 45 2 15 -1 22 -11 22 -8 0 -13 4 -10 9 3 5 -2 12 -11 15 -14 6 -15 9 -3
16 11 7 11 11 1 23 -9 12 -9 16 1 20 10 4 10 8 -2 16 -12 8 -12 11 -1 11 11 0
11 3 1 15 -10 12 -10 15 0 15 10 0 10 3 0 15 -7 8 -8 15 -3 15 5 0 9 9 10 20
1 11 -4 20 -10 20 -8 0 -8 3 -2 8 12 8 19 36 8 29 -20 -12 -37 33 -19 50 5 5
6 3 2 -4 -4 -8 -2 -11 6 -8 7 3 14 16 14 30 1 16 -2 23 -10 18 -7 -4 -6 -1 1
7 9 10 10 17 2 27 -9 10 -8 13 1 13 9 0 10 3 1 13 -6 8 -8 17 -4 21 11 11 14
48 3 41 -6 -3 -7 1 -4 10 4 9 9 14 11 11 3 -3 16 7 29 21 13 14 28 22 35 17 7
-4 9 -3 6 3 -4 5 2 19 13 30 10 12 16 25 12 29 -4 5 1 2 10 -5 15 -11 17 -10
13 8 -2 11 0 20 5 18 4 -1 17 9 28 21 13 15 26 21 34 16 9 -5 8 -1 -2 11 -9
11 -10 16 -2 11 6 -4 12 -3 12 2 0 5 11 8 25 7 16 -2 25 2 25 10 0 8 5 17 12
21 7 5 8 3 3 -7 -5 -8 2 -5 15 6 13 11 21 15 17 9 -3 -6 0 -11 8 -11 8 0 14 3
13 6 -2 19 4 27 22 29 43 4 48 6 43 18 -3 10 14 12 71 10 41 -1 73 1 70 5 -2
4 8 4 23 0 16 -3 44 -6 63 -5z"/>
<path d="M11590 7921 c0 -5 5 -13 10 -16 6 -3 10 -2 10 4 0 5 -4 13 -10 16 -5
3 -10 2 -10 -4z"/>
<path d="M11062 4944 c-6 -10 -12 -14 -12 -7 0 12 -46 11 -58 -2 -4 -5 2 -5
12 -1 16 5 17 4 6 -9 -7 -8 -17 -12 -22 -9 -5 3 -12 -3 -15 -15 -3 -11 -9 -19
-13 -16 -13 8 -32 -23 -24 -37 5 -8 1 -8 -11 2 -11 9 -16 10 -11 3 4 -7 3 -13
-2 -13 -5 0 -6 -14 -4 -31 4 -25 2 -30 -9 -24 -8 5 -6 0 4 -12 9 -11 14 -23
10 -27 -11 -11 -10 -70 2 -85 7 -11 7 -13 -2 -7 -19 11 -16 -9 4 -25 14 -12
16 -12 9 1 -4 8 0 6 8 -4 14 -18 14 -21 -1 -38 -16 -18 -16 -18 0 -12 11 4 17
1 17 -7 0 -11 3 -11 10 1 6 9 10 11 10 3 0 -7 7 -10 16 -6 10 4 17 -1 21 -16
6 -24 14 -26 31 -9 7 7 12 8 12 2 0 -13 63 -12 72 1 5 6 8 6 8 -2 0 -6 9 -11
20 -10 11 1 20 5 20 10 0 4 5 5 10 2 6 -3 10 1 10 10 0 11 5 15 15 11 8 -3 14
-2 14 2 -3 19 2 33 10 27 5 -3 12 4 16 15 3 11 13 20 21 20 8 0 12 5 9 10 -3
6 -1 10 6 10 8 0 7 5 -2 17 -10 11 -10 14 -1 9 15 -9 16 6 0 22 -9 9 -9 12 1
12 7 0 9 5 5 13 -5 8 -2 7 9 -2 15 -12 17 -12 11 4 -5 13 -4 16 5 11 10 -6 10
-4 0 12 -7 12 -16 19 -20 16 -4 -2 -10 0 -13 5 -4 5 -2 12 4 16 15 9 12 28 -2
19 -10 -5 -10 -4 -1 6 10 11 9 16 -5 27 -10 9 -11 11 -2 7 8 -4 2 6 -15 24
-32 35 -46 43 -24 15 13 -16 12 -17 -3 -4 -10 7 -18 20 -18 28 0 8 -4 11 -10
8 -5 -3 -10 1 -10 10 0 9 -4 14 -9 11 -5 -3 -12 2 -16 12 -6 16 -7 16 -21 -2
-8 -11 -14 -15 -14 -10 0 6 -7 11 -15 11 -8 0 -15 -5 -15 -11 0 -5 -6 -1 -14
9 -13 18 -13 18 -24 -1z"/>
<path d="M11500 8556 c0 -2 7 -9 15 -16 9 -7 15 -8 15 -2 0 5 -7 12 -15 16 -8
3 -15 4 -15 2z"/>
<path d="M12365 7501 c-3 -5 -2 -12 3 -15 5 -3 9 1 9 9 0 17 -3 19 -12 6z"/>
<path d="M4616 4262 c-3 -5 1 -9 9 -9 8 0 12 4 9 9 -3 4 -7 8 -9 8 -2 0 -6 -4
-9 -8z"/>
</g>
</svg>
